<svg width="45" height="20" viewBox="0 0 45 20" fill="none" xmlns="http://www.w3.org/2000/svg">
<rect x="0.5" y="0.5" width="44" height="19" rx="9.5" fill="#F4F4F5"/>
<rect x="0.5" y="0.5" width="44" height="19" rx="9.5" stroke="#90929D"/>
<path d="M11.4312 7.03H12.0912V8.5C12.0912 10.38 10.9412 12.32 9.53117 13.04L9.05117 12.38C10.3412 11.75 11.4312 10.03 11.4312 8.5V7.03ZM11.5812 7.03H12.2412V8.5C12.2412 9.93 13.2612 11.54 14.5712 12.16L14.1012 12.82C12.6712 12.11 11.5812 10.29 11.5812 8.5V7.03ZM9.37117 6.66H14.2412V7.36H9.37117V6.66ZM15.3112 5.74H16.1512V14.78H15.3112V5.74ZM15.9512 9.39H17.6312V10.09H15.9512V9.39ZM21.9604 8.97H23.6904V9.66H21.9604V8.97ZM20.2704 6.59H20.9204V8.31C20.9204 10.2 20.1304 12.03 18.8104 12.84L18.2904 12.21C19.5304 11.48 20.2704 9.86 20.2704 8.31V6.59ZM20.4304 6.59H21.0704V8.28C21.0704 9.73 21.7504 11.27 22.9404 11.99L22.4604 12.64C21.1604 11.84 20.4304 10.04 20.4304 8.28V6.59ZM25.2804 5.74H26.0804V14.78H25.2804V5.74ZM23.4504 5.93H24.2304V14.33H23.4504V5.93ZM34.1596 5.74H34.9896V14.78H34.1596V5.74ZM27.7996 7.2H33.2196V7.87H27.7996V7.2ZM30.5196 8.61C31.8196 8.61 32.7596 9.47 32.7596 10.69C32.7596 11.91 31.8196 12.77 30.5196 12.77C29.2196 12.77 28.2896 11.91 28.2896 10.69C28.2896 9.47 29.2196 8.61 30.5196 8.61ZM30.5196 9.3C29.6896 9.3 29.0796 9.87 29.0796 10.69C29.0796 11.5 29.6896 12.08 30.5196 12.08C31.3496 12.08 31.9596 11.5 31.9596 10.69C31.9596 9.87 31.3496 9.3 30.5196 9.3ZM30.0896 5.83H30.9196V7.61H30.0896V5.83Z" fill="#45474E"/>
</svg>
