<svg width="23" height="23" viewBox="0 0 23 23" fill="none" xmlns="http://www.w3.org/2000/svg">
<rect x="0.25" y="0.25" width="22.5" height="22.5" rx="11.25" fill="white"/>
<rect x="0.25" y="0.25" width="22.5" height="22.5" rx="11.25" stroke="#61E5FA" stroke-width="0.5"/>
<path d="M8.69988 15V14.352C9.61988 13.544 10.3759 12.808 10.9679 12.144C11.5679 11.48 12.0119 10.864 12.2999 10.296C12.5879 9.72 12.7319 9.18 12.7319 8.676C12.7319 8.34 12.6719 8.04 12.5519 7.776C12.4399 7.512 12.2639 7.308 12.0239 7.164C11.7839 7.012 11.4799 6.936 11.1119 6.936C10.7519 6.936 10.4159 7.032 10.1039 7.224C9.79988 7.416 9.52788 7.66 9.28788 7.956L8.65188 7.332C9.00388 6.94 9.38388 6.628 9.79188 6.396C10.1999 6.164 10.6839 6.048 11.2439 6.048C11.7719 6.048 12.2239 6.156 12.5999 6.372C12.9839 6.58 13.2799 6.88 13.4879 7.272C13.7039 7.656 13.8119 8.108 13.8119 8.628C13.8119 9.212 13.6639 9.804 13.3679 10.404C13.0799 11.004 12.6759 11.616 12.1559 12.24C11.6439 12.856 11.0439 13.488 10.3559 14.136C10.5879 14.12 10.8279 14.104 11.0759 14.088C11.3319 14.064 11.5719 14.052 11.7959 14.052H14.2319V15H8.69988Z" fill="#61E5FA"/>
</svg>
