<svg width="23" height="23" viewBox="0 0 23 23" fill="none" xmlns="http://www.w3.org/2000/svg">
<rect x="0.25" y="0.25" width="22.5" height="22.5" rx="11.25" fill="white"/>
<rect x="0.25" y="0.25" width="22.5" height="22.5" rx="11.25" stroke="#61E5FA" stroke-width="0.5"/>
<path d="M11.3279 15.156C10.8719 15.156 10.4679 15.1 10.1159 14.988C9.77188 14.876 9.46788 14.728 9.20388 14.544C8.93988 14.36 8.71188 14.16 8.51988 13.944L9.08388 13.236C9.33988 13.5 9.63988 13.736 9.98388 13.944C10.3359 14.144 10.7599 14.244 11.2559 14.244C11.6079 14.244 11.9159 14.18 12.1799 14.052C12.4519 13.916 12.6639 13.728 12.8159 13.488C12.9679 13.24 13.0439 12.948 13.0439 12.612C13.0439 12.26 12.9559 11.952 12.7799 11.688C12.6119 11.424 12.3279 11.22 11.9279 11.076C11.5279 10.924 10.9879 10.848 10.3079 10.848V10.008C10.9159 10.008 11.3959 9.936 11.7479 9.792C12.0999 9.64 12.3519 9.436 12.5039 9.18C12.6639 8.924 12.7439 8.64 12.7439 8.328C12.7439 7.904 12.6119 7.568 12.3479 7.32C12.0839 7.064 11.7199 6.936 11.2559 6.936C10.9039 6.936 10.5719 7.016 10.2599 7.176C9.95588 7.336 9.67988 7.54 9.43188 7.788L8.84388 7.092C9.17988 6.788 9.54388 6.54 9.93587 6.348C10.3359 6.148 10.7879 6.048 11.2919 6.048C11.7879 6.048 12.2279 6.136 12.6119 6.312C13.0039 6.48 13.3079 6.728 13.5239 7.056C13.7479 7.384 13.8599 7.78 13.8599 8.244C13.8599 8.78 13.7159 9.224 13.4279 9.576C13.1399 9.928 12.7639 10.188 12.2999 10.356V10.416C12.6439 10.496 12.9559 10.636 13.2359 10.836C13.5159 11.036 13.7399 11.288 13.9079 11.592C14.0759 11.896 14.1599 12.248 14.1599 12.648C14.1599 13.168 14.0319 13.616 13.7759 13.992C13.5199 14.368 13.1799 14.656 12.7559 14.856C12.3319 15.056 11.8559 15.156 11.3279 15.156Z" fill="#61E5FA"/>
</svg>
