<svg width="158" height="35" viewBox="0 0 158 35" fill="none" xmlns="http://www.w3.org/2000/svg">
<rect width="158" height="29.0341" rx="8" fill="url(#paint0_linear_327_40460)"/>
<path d="M22.8288 18.5833L23.7904 16.3394C23.9636 15.9354 24.5364 15.9354 24.7096 16.3394L25.6779 18.5987C25.7244 18.7074 25.808 18.7961 25.9138 18.849L27.6703 19.7273C28.0688 19.9265 28.0274 20.5079 27.6048 20.6488L25.963 21.1961C25.8275 21.2412 25.7178 21.3422 25.6616 21.4735L24.7096 23.6948C24.5364 24.0988 23.9636 24.0988 23.7904 23.6948L22.8436 21.4856C22.7844 21.3473 22.6661 21.2431 22.5214 21.2018L20.6022 20.6534C20.1498 20.5242 20.1101 19.8985 20.5426 19.7131L22.5662 18.8459C22.6842 18.7953 22.7782 18.7013 22.8288 18.5833Z" fill="white"/>
<path d="M13.5141 10.3314L9.58624 11.4027C9.13463 11.5258 9.08475 12.1465 9.5109 12.3402L13.5793 14.1895C13.6894 14.2395 13.7776 14.3277 13.8276 14.4378L15.7948 18.7657C15.9725 19.1565 16.5275 19.1565 16.7052 18.7657L18.6724 14.4378C18.7224 14.3277 18.8106 14.2395 18.9207 14.1895L22.9891 12.3402C23.4153 12.1465 23.3654 11.5258 22.9138 11.4027L18.9859 10.3314C18.8371 10.2908 18.7153 10.1838 18.6559 10.0414L16.7115 5.37478C16.5406 4.96453 15.9594 4.96453 15.7885 5.37478L13.8441 10.0414C13.7847 10.1838 13.6629 10.2908 13.5141 10.3314Z" fill="white"/>
<path d="M40.1623 18.5171V11.1871H41.2723L42.6723 15.1071C42.7657 15.3538 42.8557 15.6071 42.9423 15.8671C43.029 16.1271 43.1157 16.3838 43.2023 16.6371H43.2423C43.3357 16.3838 43.4223 16.1271 43.5023 15.8671C43.589 15.6071 43.6723 15.3538 43.7523 15.1071L45.1523 11.1871H46.2623V18.5171H45.4023V14.4571C45.4023 14.2438 45.409 14.0138 45.4223 13.7671C45.4357 13.5138 45.4523 13.2604 45.4723 13.0071C45.4923 12.7471 45.509 12.5104 45.5223 12.2971H45.4823L44.8923 13.9671L43.5123 17.7771H42.8923L41.5023 13.9671L40.9123 12.2971H40.8723C40.899 12.5104 40.919 12.7471 40.9323 13.0071C40.9523 13.2604 40.9657 13.5138 40.9723 13.7671C40.9857 14.0138 40.9923 14.2438 40.9923 14.4571V18.5171H40.1623ZM49.4376 18.6471C49.1376 18.6471 48.8676 18.5871 48.6276 18.4671C48.3876 18.3471 48.1976 18.1738 48.0576 17.9471C47.9242 17.7138 47.8576 17.4338 47.8576 17.1071C47.8576 16.5138 48.1209 16.0604 48.6476 15.7471C49.1809 15.4271 50.0276 15.2038 51.1876 15.0771C51.1876 14.8438 51.1542 14.6238 51.0876 14.4171C51.0276 14.2038 50.9176 14.0338 50.7576 13.9071C50.5976 13.7738 50.3676 13.7071 50.0676 13.7071C49.7542 13.7071 49.4576 13.7704 49.1776 13.8971C48.9042 14.0171 48.6576 14.1471 48.4376 14.2871L48.0876 13.6571C48.2542 13.5504 48.4476 13.4438 48.6676 13.3371C48.8876 13.2238 49.1276 13.1304 49.3876 13.0571C49.6476 12.9838 49.9242 12.9471 50.2176 12.9471C50.6576 12.9471 51.0142 13.0404 51.2876 13.2271C51.5676 13.4138 51.7709 13.6738 51.8976 14.0071C52.0309 14.3338 52.0976 14.7238 52.0976 15.1771V18.5171H51.3476L51.2676 17.8671H51.2376C50.9842 18.0804 50.7042 18.2638 50.3976 18.4171C50.0976 18.5704 49.7776 18.6471 49.4376 18.6471ZM49.6976 17.9071C49.9576 17.9071 50.2042 17.8471 50.4376 17.7271C50.6776 17.6071 50.9276 17.4304 51.1876 17.1971V15.6871C50.5809 15.7538 50.0976 15.8504 49.7376 15.9771C49.3776 16.0971 49.1209 16.2471 48.9676 16.4271C48.8142 16.6004 48.7376 16.8071 48.7376 17.0471C48.7376 17.3604 48.8309 17.5838 49.0176 17.7171C49.2042 17.8438 49.4309 17.9071 49.6976 17.9071ZM53.8223 18.5171V10.5571H54.7223V15.9471H54.7623L57.0623 13.0871H58.0823L56.2723 15.2771L58.3223 18.5171H57.3323L55.7423 15.8971L54.7223 17.0871V18.5171H53.8223ZM61.3055 18.6471C60.8189 18.6471 60.3789 18.5338 59.9855 18.3071C59.5922 18.0804 59.2789 17.7571 59.0455 17.3371C58.8189 16.9104 58.7055 16.4004 58.7055 15.8071C58.7055 15.3604 58.7722 14.9638 58.9055 14.6171C59.0389 14.2638 59.2189 13.9638 59.4455 13.7171C59.6789 13.4638 59.9422 13.2738 60.2355 13.1471C60.5289 13.0138 60.8289 12.9471 61.1355 12.9471C61.6022 12.9471 61.9955 13.0504 62.3155 13.2571C62.6355 13.4638 62.8789 13.7604 63.0455 14.1471C63.2189 14.5271 63.3055 14.9771 63.3055 15.4971C63.3055 15.5971 63.3022 15.6904 63.2955 15.7771C63.2889 15.8638 63.2789 15.9438 63.2655 16.0171H59.6055C59.6255 16.4038 59.7122 16.7404 59.8655 17.0271C60.0255 17.3071 60.2355 17.5271 60.4955 17.6871C60.7555 17.8404 61.0589 17.9171 61.4055 17.9171C61.6722 17.9171 61.9122 17.8804 62.1255 17.8071C62.3455 17.7271 62.5589 17.6204 62.7655 17.4871L63.0855 18.0971C62.8522 18.2504 62.5889 18.3804 62.2955 18.4871C62.0022 18.5938 61.6722 18.6471 61.3055 18.6471ZM59.5955 15.3671H62.5055C62.5055 14.8204 62.3855 14.4038 62.1455 14.1171C61.9122 13.8238 61.5822 13.6771 61.1555 13.6771C60.9022 13.6771 60.6622 13.7438 60.4355 13.8771C60.2155 14.0104 60.0289 14.2004 59.8755 14.4471C59.7289 14.6938 59.6355 15.0004 59.5955 15.3671ZM68.129 18.6471C67.829 18.6471 67.559 18.5871 67.319 18.4671C67.079 18.3471 66.889 18.1738 66.749 17.9471C66.6157 17.7138 66.549 17.4338 66.549 17.1071C66.549 16.5138 66.8123 16.0604 67.339 15.7471C67.8723 15.4271 68.719 15.2038 69.879 15.0771C69.879 14.8438 69.8457 14.6238 69.779 14.4171C69.719 14.2038 69.609 14.0338 69.449 13.9071C69.289 13.7738 69.059 13.7071 68.759 13.7071C68.4457 13.7071 68.149 13.7704 67.869 13.8971C67.5957 14.0171 67.349 14.1471 67.129 14.2871L66.779 13.6571C66.9457 13.5504 67.139 13.4438 67.359 13.3371C67.579 13.2238 67.819 13.1304 68.079 13.0571C68.339 12.9838 68.6157 12.9471 68.909 12.9471C69.349 12.9471 69.7057 13.0404 69.979 13.2271C70.259 13.4138 70.4623 13.6738 70.589 14.0071C70.7223 14.3338 70.789 14.7238 70.789 15.1771V18.5171H70.039L69.959 17.8671H69.929C69.6757 18.0804 69.3957 18.2638 69.089 18.4171C68.789 18.5704 68.469 18.6471 68.129 18.6471ZM68.389 17.9071C68.649 17.9071 68.8957 17.8471 69.129 17.7271C69.369 17.6071 69.619 17.4304 69.879 17.1971V15.6871C69.2723 15.7538 68.789 15.8504 68.429 15.9771C68.069 16.0971 67.8123 16.2471 67.659 16.4271C67.5057 16.6004 67.429 16.8071 67.429 17.0471C67.429 17.3604 67.5223 17.5838 67.709 17.7171C67.8957 17.8438 68.1223 17.9071 68.389 17.9071ZM74.7501 20.8071V13.0871H75.5001L75.5901 13.7171H75.6101C75.8567 13.5104 76.1267 13.3304 76.4201 13.1771C76.7201 13.0238 77.0267 12.9471 77.3401 12.9471C77.8067 12.9471 78.2001 13.0638 78.5201 13.2971C78.8467 13.5238 79.0901 13.8438 79.2501 14.2571C79.4167 14.6704 79.5001 15.1571 79.5001 15.7171C79.5001 16.3371 79.3867 16.8671 79.1601 17.3071C78.9401 17.7404 78.6501 18.0738 78.2901 18.3071C77.9367 18.5338 77.5534 18.6471 77.1401 18.6471C76.8934 18.6471 76.6434 18.5938 76.3901 18.4871C76.1367 18.3738 75.8867 18.2171 75.6401 18.0171L75.6701 18.9671V20.8071H74.7501ZM76.9901 17.8771C77.2901 17.8771 77.5567 17.7938 77.7901 17.6271C78.0301 17.4538 78.2167 17.2071 78.3501 16.8871C78.4834 16.5604 78.5501 16.1738 78.5501 15.7271C78.5501 15.3271 78.5001 14.9771 78.4001 14.6771C78.3067 14.3704 78.1567 14.1338 77.9501 13.9671C77.7434 13.8004 77.4634 13.7171 77.1101 13.7171C76.8834 13.7171 76.6501 13.7804 76.4101 13.9071C76.1767 14.0338 75.9301 14.2171 75.6701 14.4571V17.3171C75.9101 17.5238 76.1467 17.6704 76.3801 17.7571C76.6134 17.8371 76.8167 17.8771 76.9901 17.8771ZM81.9113 18.6471C81.6846 18.6471 81.5013 18.6004 81.3613 18.5071C81.2213 18.4138 81.1179 18.2771 81.0513 18.0971C80.9846 17.9104 80.9513 17.6904 80.9513 17.4371V10.5571H81.8713V17.4971C81.8713 17.6371 81.8946 17.7371 81.9413 17.7971C81.9946 17.8571 82.0546 17.8871 82.1213 17.8871C82.1479 17.8871 82.1746 17.8871 82.2013 17.8871C82.2279 17.8804 82.2646 17.8738 82.3113 17.8671L82.4413 18.5671C82.3746 18.5871 82.3013 18.6038 82.2213 18.6171C82.1413 18.6371 82.0379 18.6471 81.9113 18.6471ZM85.043 18.6471C84.743 18.6471 84.473 18.5871 84.233 18.4671C83.993 18.3471 83.803 18.1738 83.663 17.9471C83.5297 17.7138 83.463 17.4338 83.463 17.1071C83.463 16.5138 83.7264 16.0604 84.253 15.7471C84.7864 15.4271 85.633 15.2038 86.793 15.0771C86.793 14.8438 86.7597 14.6238 86.693 14.4171C86.633 14.2038 86.523 14.0338 86.363 13.9071C86.203 13.7738 85.973 13.7071 85.673 13.7071C85.3597 13.7071 85.063 13.7704 84.783 13.8971C84.5097 14.0171 84.263 14.1471 84.043 14.2871L83.693 13.6571C83.8597 13.5504 84.053 13.4438 84.273 13.3371C84.493 13.2238 84.733 13.1304 84.993 13.0571C85.253 12.9838 85.5297 12.9471 85.823 12.9471C86.263 12.9471 86.6197 13.0404 86.893 13.2271C87.173 13.4138 87.3764 13.6738 87.503 14.0071C87.6364 14.3338 87.703 14.7238 87.703 15.1771V18.5171H86.953L86.873 17.8671H86.843C86.5897 18.0804 86.3097 18.2638 86.003 18.4171C85.703 18.5704 85.383 18.6471 85.043 18.6471ZM85.303 17.9071C85.563 17.9071 85.8097 17.8471 86.043 17.7271C86.283 17.6071 86.533 17.4304 86.793 17.1971V15.6871C86.1864 15.7538 85.703 15.8504 85.343 15.9771C84.983 16.0971 84.7264 16.2471 84.573 16.4271C84.4197 16.6004 84.343 16.8071 84.343 17.0471C84.343 17.3604 84.4364 17.5838 84.623 17.7171C84.8097 17.8438 85.0364 17.9071 85.303 17.9071ZM89.4278 18.5171V13.0871H90.1778L90.2678 13.8771H90.2878C90.5478 13.6171 90.8211 13.3971 91.1078 13.2171C91.4011 13.0371 91.7345 12.9471 92.1078 12.9471C92.6811 12.9471 93.1011 13.1304 93.3678 13.4971C93.6345 13.8571 93.7678 14.3838 93.7678 15.0771V18.5171H92.8578V15.1971C92.8578 14.6838 92.7745 14.3138 92.6078 14.0871C92.4478 13.8604 92.1878 13.7471 91.8278 13.7471C91.5478 13.7471 91.2978 13.8171 91.0778 13.9571C90.8578 14.0971 90.6145 14.3038 90.3478 14.5771V18.5171H89.4278ZM98.6277 18.5171L97.1177 13.0871H98.0477L98.8577 16.2271C98.9177 16.4871 98.971 16.7404 99.0177 16.9871C99.071 17.2338 99.1243 17.4838 99.1777 17.7371H99.2277C99.2877 17.4838 99.3443 17.2338 99.3977 16.9871C99.4577 16.7404 99.521 16.4871 99.5877 16.2271L100.438 13.0871H101.328L102.178 16.2271C102.244 16.4871 102.308 16.7404 102.368 16.9871C102.434 17.2338 102.498 17.4838 102.558 17.7371H102.608C102.661 17.4838 102.714 17.2338 102.768 16.9871C102.821 16.7404 102.878 16.4871 102.938 16.2271L103.728 13.0871H104.608L103.138 18.5171H102.028L101.248 15.5871C101.181 15.3338 101.118 15.0804 101.058 14.8271C100.998 14.5671 100.938 14.3004 100.878 14.0271H100.828C100.768 14.3004 100.708 14.5671 100.648 14.8271C100.594 15.0871 100.531 15.3471 100.458 15.6071L99.6877 18.5171H98.6277ZM105.785 18.5171V13.0871H106.705V18.5171H105.785ZM106.245 11.9671C106.065 11.9671 105.919 11.9138 105.805 11.8071C105.699 11.6938 105.645 11.5438 105.645 11.3571C105.645 11.1771 105.699 11.0338 105.805 10.9271C105.919 10.8204 106.065 10.7671 106.245 10.7671C106.425 10.7671 106.572 10.8204 106.685 10.9271C106.799 11.0338 106.855 11.1771 106.855 11.3571C106.855 11.5438 106.799 11.6938 106.685 11.8071C106.572 11.9138 106.425 11.9671 106.245 11.9671ZM110.239 18.6471C109.859 18.6471 109.556 18.5738 109.329 18.4271C109.102 18.2738 108.939 18.0604 108.839 17.7871C108.746 17.5138 108.699 17.1971 108.699 16.8371V13.8271H107.889V13.1371L108.749 13.0871L108.849 11.5571H109.609V13.0871H111.089V13.8271H109.609V16.8671C109.609 17.1938 109.669 17.4504 109.789 17.6371C109.916 17.8171 110.136 17.9071 110.449 17.9071C110.549 17.9071 110.656 17.8938 110.769 17.8671C110.882 17.8338 110.982 17.7971 111.069 17.7571L111.249 18.4471C111.096 18.5004 110.932 18.5471 110.759 18.5871C110.586 18.6271 110.412 18.6471 110.239 18.6471ZM112.309 18.5171V10.5571H113.229V12.7371L113.189 13.8571C113.442 13.6038 113.712 13.3904 113.999 13.2171C114.285 13.0371 114.615 12.9471 114.989 12.9471C115.562 12.9471 115.982 13.1304 116.249 13.4971C116.515 13.8571 116.649 14.3838 116.649 15.0771V18.5171H115.739V15.1971C115.739 14.6838 115.655 14.3138 115.489 14.0871C115.329 13.8604 115.069 13.7471 114.709 13.7471C114.429 13.7471 114.179 13.8171 113.959 13.9571C113.739 14.0971 113.495 14.3038 113.229 14.5771V18.5171H112.309ZM119.739 18.5171L122.219 11.1871H123.249L125.739 18.5171H124.759L123.479 14.4171C123.346 13.9971 123.219 13.5871 123.099 13.1871C122.979 12.7804 122.859 12.3638 122.739 11.9371H122.699C122.586 12.3638 122.466 12.7804 122.339 13.1871C122.219 13.5871 122.096 13.9971 121.969 14.4171L120.669 18.5171H119.739ZM121.029 16.2771V15.5471H124.409V16.2771H121.029ZM126.793 18.5171V11.1871H127.713V18.5171H126.793ZM133.499 15.6471H134.339V19.2971H133.499V15.6471ZM136.739 15.6471H137.569V19.2971H136.739V15.6471ZM131.439 15.5271H139.639V16.2071H131.439V15.5271ZM132.479 10.6071H133.299V11.8171H137.769V10.6071H138.599V14.4671H132.479V10.6071ZM133.299 12.4871V13.7871H137.769V12.4871H133.299ZM147.238 10.2471H148.058V19.3071H147.238V10.2471ZM141.168 16.4271H141.918C142.432 16.4271 142.925 16.4204 143.398 16.4071C143.878 16.3871 144.362 16.3538 144.848 16.3071C145.342 16.2604 145.855 16.1938 146.388 16.1071L146.468 16.7871C145.655 16.9204 144.888 17.0104 144.168 17.0571C143.448 17.0971 142.698 17.1171 141.918 17.1171H141.168V16.4271ZM141.148 11.0871H145.328V14.3171H142.008V16.6871H141.168V13.6471H144.488V11.7671H141.148V11.0871Z" fill="white"/>
<path d="M77.5163 35L73.3407 27.2443L81.6919 27.2443L77.5163 35Z" fill="#576CFE"/>
<defs>
<linearGradient id="paint0_linear_327_40460" x1="0" y1="14.517" x2="158" y2="14.517" gradientUnits="userSpaceOnUse">
<stop stop-color="#0FA0FE"/>
<stop offset="1" stop-color="#A235FE"/>
</linearGradient>
</defs>
</svg>
