<svg width="196" height="175" viewBox="0 0 196 175" fill="none" xmlns="http://www.w3.org/2000/svg">
<g id="Background_character">
<path id="Union" fill-rule="evenodd" clip-rule="evenodd" d="M24.9364 0.297278C11.7119 14.1252 13.8419 34.4675 16.6981 43.4666C6.15558 56.909 0 73.1125 0 90.5541C0 137.079 43.7987 174.794 97.8271 174.794C151.856 174.794 195.654 137.079 195.654 90.5541C195.654 73.5026 189.771 57.6344 179.657 44.3726C182.546 35.4819 184.812 14.9314 171.485 0.996421C168.8 -0.0732927 158.825 1.15688 140.411 14.6353L140.573 14.7604C127.659 9.34954 113.155 6.31413 97.8271 6.31413C82.3752 6.31413 67.76 9.39903 54.7668 14.8926L56.0108 13.9361C37.5963 0.457736 27.6218 -0.772436 24.9364 0.297278Z" fill="#DCF9FE"/>
</g>
</svg>
