<svg width="34" height="28" viewBox="0 0 34 28" fill="none" xmlns="http://www.w3.org/2000/svg">
<rect width="34" height="28" fill="#2E2E33"/>
<mask id="mask0_238_12621" style="mask-type:alpha" maskUnits="userSpaceOnUse" x="5" y="2" width="24" height="24">
<rect x="5" y="2" width="24" height="24" fill="#D9D9D9"/>
</mask>
<g mask="url(#mask0_238_12621)">
<path d="M24.0929 21.2L18.2129 16.16C17.7463 16.48 17.2096 16.7334 16.6029 16.92C15.9963 17.1067 15.3507 17.2 14.6663 17.2C12.9707 17.2 11.5357 16.6967 10.3613 15.69C9.18683 14.6834 8.59961 13.4534 8.59961 12C8.59961 10.5467 9.18683 9.31672 10.3613 8.31005C11.5357 7.30338 12.9707 6.80005 14.6663 6.80005C16.3618 6.80005 17.7968 7.30338 18.9713 8.31005C20.1457 9.31672 20.7329 10.5467 20.7329 12C20.7329 12.5867 20.6241 13.14 20.4063 13.66C20.1885 14.18 19.8929 14.64 19.5196 15.04L25.3996 20.08L24.0929 21.2ZM14.6663 15.6C15.8329 15.6 16.8246 15.25 17.6413 14.55C18.4579 13.85 18.8663 13 18.8663 12C18.8663 11 18.4579 10.15 17.6413 9.45005C16.8246 8.75005 15.8329 8.40005 14.6663 8.40005C13.4996 8.40005 12.5079 8.75005 11.6913 9.45005C10.8746 10.15 10.4663 11 10.4663 12C10.4663 13 10.8746 13.85 11.6913 14.55C12.5079 15.25 13.4996 15.6 14.6663 15.6Z" fill="white"/>
</g>
</svg>
