<svg width="18" height="18" viewBox="0 0 18 18" fill="none" xmlns="http://www.w3.org/2000/svg">
<mask id="mask0_248_12015" style="mask-type:alpha" maskUnits="userSpaceOnUse" x="0" y="0" width="18" height="18">
<rect width="18" height="18" fill="#D9D9D9"/>
</mask>
<g mask="url(#mask0_248_12015)">
<path d="M9 17.1077C7.1125 17.1077 5.51562 16.7555 4.20937 16.0512C2.90312 15.3469 2.25 14.4874 2.25 13.4726V4.38504C2.25 3.3854 2.90937 2.52965 4.22813 1.81779C5.54688 1.10593 7.1375 0.75 9 0.75C10.8625 0.75 12.4531 1.10593 13.7719 1.81779C15.0906 2.52965 15.75 3.3854 15.75 4.38504V13.4726C15.75 14.4874 15.0969 15.3469 13.7906 16.0512C12.4844 16.7555 10.8875 17.1077 9 17.1077ZM9 6.22527C10.1125 6.22527 11.2313 6.03216 12.3563 5.64594C13.4813 5.25972 14.1125 4.84699 14.25 4.40776C14.1125 3.96852 13.4844 3.55201 12.3656 3.15821C11.2469 2.76442 10.125 2.56752 9 2.56752C7.8625 2.56752 6.74687 2.76063 5.65312 3.14685C4.55937 3.53307 3.925 3.95338 3.75 4.40776C3.925 4.86213 4.55937 5.27865 5.65312 5.6573C6.74687 6.03595 7.8625 6.22527 9 6.22527ZM9 10.7464C9.525 10.7464 10.0313 10.7161 10.5188 10.6555C11.0063 10.5949 11.4719 10.5078 11.9156 10.3942C12.3594 10.2806 12.7781 10.1405 13.1719 9.97391C13.5656 9.8073 13.925 9.61798 14.25 9.40593V6.67965C13.925 6.8917 13.5656 7.08102 13.1719 7.24763C12.7781 7.41423 12.3594 7.55433 11.9156 7.66793C11.4719 7.78152 11.0063 7.86861 10.5188 7.9292C10.0313 7.98978 9.525 8.02007 9 8.02007C8.475 8.02007 7.9625 7.98978 7.4625 7.9292C6.9625 7.86861 6.49062 7.78152 6.04688 7.66793C5.60313 7.55433 5.1875 7.41423 4.8 7.24763C4.4125 7.08102 4.0625 6.8917 3.75 6.67965V9.40593C4.0625 9.61798 4.4125 9.8073 4.8 9.97391C5.1875 10.1405 5.60313 10.2806 6.04688 10.3942C6.49062 10.5078 6.9625 10.5949 7.4625 10.6555C7.9625 10.7161 8.475 10.7464 9 10.7464ZM9 15.2901C9.575 15.2901 10.1594 15.2371 10.7531 15.1311C11.3469 15.0251 11.8938 14.885 12.3938 14.7108C12.8938 14.5366 13.3125 14.3397 13.65 14.1201C13.9875 13.9005 14.1875 13.6771 14.25 13.4499V11.2234C13.925 11.4355 13.5656 11.6248 13.1719 11.7914C12.7781 11.958 12.3594 12.0981 11.9156 12.2117C11.4719 12.3253 11.0063 12.4124 10.5188 12.473C10.0313 12.5336 9.525 12.5639 9 12.5639C8.475 12.5639 7.9625 12.5336 7.4625 12.473C6.9625 12.4124 6.49062 12.3253 6.04688 12.2117C5.60313 12.0981 5.1875 11.958 4.8 11.7914C4.4125 11.6248 4.0625 11.4355 3.75 11.2234V13.4726C3.8125 13.6998 4.00938 13.9194 4.34063 14.1315C4.67188 14.3435 5.0875 14.5366 5.5875 14.7108C6.0875 14.885 6.6375 15.0251 7.2375 15.1311C7.8375 15.2371 8.425 15.2901 9 15.2901Z" fill="#61E5FA"/>
</g>
</svg>
