<svg width="91" height="91" viewBox="0 0 91 91" fill="none" xmlns="http://www.w3.org/2000/svg">
<circle cx="44.5" cy="44.5" r="44.5" fill="#C6C7CD"/>
<mask id="mask0_730_52632" style="mask-type:alpha" maskUnits="userSpaceOnUse" x="0" y="0" width="91" height="91">
<rect width="91" height="91" fill="#E2E3E6"/>
</mask>
<g mask="url(#mask0_730_52632)">
<path d="M21.4375 63.625C24.625 61.1875 28.1875 59.2656 32.125 57.8594C36.0625 56.4531 40.1875 55.75 44.5 55.75C48.8125 55.75 52.9375 56.4531 56.875 57.8594C60.8125 59.2656 64.375 61.1875 67.5625 63.625C69.75 61.0625 71.4531 58.1563 72.6719 54.9063C73.8906 51.6563 74.5 48.1875 74.5 44.5C74.5 36.1875 71.5781 29.1094 65.7344 23.2656C59.8906 17.4219 52.8125 14.5 44.5 14.5C36.1875 14.5 29.1094 17.4219 23.2656 23.2656C17.4219 29.1094 14.5 36.1875 14.5 44.5C14.5 48.1875 15.1094 51.6563 16.3281 54.9063C17.5469 58.1563 19.25 61.0625 21.4375 63.625ZM44.5 48.25C40.8125 48.25 37.7031 46.9844 35.1719 44.4531C32.6406 41.9219 31.375 38.8125 31.375 35.125C31.375 31.4375 32.6406 28.3281 35.1719 25.7969C37.7031 23.2656 40.8125 22 44.5 22C48.1875 22 51.2969 23.2656 53.8281 25.7969C56.3594 28.3281 57.625 31.4375 57.625 35.125C57.625 38.8125 56.3594 41.9219 53.8281 44.4531C51.2969 46.9844 48.1875 48.25 44.5 48.25ZM44.5 82C39.3125 82 34.4375 81.0156 29.875 79.0469C25.3125 77.0781 21.3438 74.4063 17.9688 71.0313C14.5938 67.6563 11.9219 63.6875 9.95313 59.125C7.98438 54.5625 7 49.6875 7 44.5C7 39.3125 7.98438 34.4375 9.95313 29.875C11.9219 25.3125 14.5938 21.3438 17.9688 17.9688C21.3438 14.5938 25.3125 11.9219 29.875 9.95313C34.4375 7.98438 39.3125 7 44.5 7C49.6875 7 54.5625 7.98438 59.125 9.95313C63.6875 11.9219 67.6563 14.5938 71.0313 17.9688C74.4063 21.3438 77.0781 25.3125 79.0469 29.875C81.0156 34.4375 82 39.3125 82 44.5C82 49.6875 81.0156 54.5625 79.0469 59.125C77.0781 63.6875 74.4063 67.6563 71.0313 71.0313C67.6563 74.4063 63.6875 77.0781 59.125 79.0469C54.5625 81.0156 49.6875 82 44.5 82ZM44.5 74.5C47.8125 74.5 50.9375 74.0156 53.875 73.0469C56.8125 72.0781 59.5 70.6875 61.9375 68.875C59.5 67.0625 56.8125 65.6719 53.875 64.7031C50.9375 63.7344 47.8125 63.25 44.5 63.25C41.1875 63.25 38.0625 63.7344 35.125 64.7031C32.1875 65.6719 29.5 67.0625 27.0625 68.875C29.5 70.6875 32.1875 72.0781 35.125 73.0469C38.0625 74.0156 41.1875 74.5 44.5 74.5ZM44.5 40.75C46.125 40.75 47.4688 40.2188 48.5313 39.1563C49.5938 38.0938 50.125 36.75 50.125 35.125C50.125 33.5 49.5938 32.1563 48.5313 31.0938C47.4688 30.0313 46.125 29.5 44.5 29.5C42.875 29.5 41.5313 30.0313 40.4688 31.0938C39.4063 32.1563 38.875 33.5 38.875 35.125C38.875 36.75 39.4063 38.0938 40.4688 39.1563C41.5313 40.2188 42.875 40.75 44.5 40.75Z" fill="white"/>
</g>
</svg>
