<svg width="27" height="29" viewBox="0 0 27 29" fill="none" xmlns="http://www.w3.org/2000/svg">
<ellipse cx="13.5" cy="14.181" rx="13.5" ry="14.181" fill="#61E5FA"/>
<mask id="mask0_448_38186" style="mask-type:alpha" maskUnits="userSpaceOnUse" x="4" y="4" width="20" height="20">
<rect x="4.76562" y="4.05176" width="19.0588" height="19.4482" fill="#D9D9D9"/>
</mask>
<g mask="url(#mask0_448_38186)">
<path d="M9.52964 22.352C9.09288 22.352 8.71898 22.1947 8.40795 21.8799C8.09692 21.5652 7.94141 21.1868 7.94141 20.7449V6.28027C7.94141 5.8383 8.09692 5.45994 8.40795 5.1452C8.71898 4.83047 9.09288 4.6731 9.52964 4.6731H17.4708C17.9076 4.6731 18.2815 4.83047 18.5925 5.1452C18.9035 5.45994 19.0591 5.8383 19.0591 6.28027V9.49463H17.4708V8.69104H9.52964V18.3341H17.4708V17.5305H19.0591V20.7449C19.0591 21.1868 18.9035 21.5652 18.5925 21.8799C18.2815 22.1947 17.9076 22.352 17.4708 22.352H9.52964ZM9.52964 19.9413V20.7449H17.4708V19.9413H9.52964ZM16.637 16.7269L13.262 13.3117L14.3738 12.1866L16.637 14.4769L21.1238 9.9366L22.2355 11.0616L16.637 16.7269ZM9.52964 7.08386H17.4708V6.28027H9.52964V7.08386Z" fill="white"/>
</g>
</svg>
