<svg width="29" height="29" viewBox="0 0 29 29" fill="none" xmlns="http://www.w3.org/2000/svg">
<ellipse cx="14.5" cy="14.4118" rx="14" ry="14.4118" fill="#61E5FA"/>
<mask id="mask0_448_20973" style="mask-type:alpha" maskUnits="userSpaceOnUse" x="4" y="4" width="21" height="21">
<rect x="4.61719" y="4.94116" width="19.7647" height="19.7647" fill="#D9D9D9"/>
</mask>
<g mask="url(#mask0_448_20973)">
<path d="M6.26425 22.2352C5.81131 22.2352 5.42356 22.0739 5.10101 21.7513C4.77846 21.4288 4.61719 21.041 4.61719 20.5881V9.05868C4.61719 8.60574 4.77846 8.21799 5.10101 7.89544C5.42356 7.5729 5.81131 7.41162 6.26425 7.41162H22.7348C23.1878 7.41162 23.5755 7.5729 23.8981 7.89544C24.2206 8.21799 24.3819 8.60574 24.3819 9.05868V20.5881C24.3819 21.041 24.2206 21.4288 23.8981 21.7513C23.5755 22.0739 23.1878 22.2352 22.7348 22.2352H6.26425ZM17.7113 20.5881H22.7348V9.05868H6.26425V20.5881H6.3466C6.92307 19.5587 7.71915 18.7523 8.73483 18.169C9.75052 17.5856 10.8486 17.294 12.029 17.294C13.2093 17.294 14.3074 17.5856 15.3231 18.169C16.3388 18.7523 17.1348 19.5587 17.7113 20.5881ZM12.029 16.4704C12.7152 16.4704 13.2986 16.2302 13.779 15.7499C14.2593 15.2695 14.4995 14.6861 14.4995 13.9999C14.4995 13.3136 14.2593 12.7302 13.779 12.2499C13.2986 11.7695 12.7152 11.5293 12.029 11.5293C11.3427 11.5293 10.7593 11.7695 10.279 12.2499C9.79856 12.7302 9.55836 13.3136 9.55836 13.9999C9.55836 14.6861 9.79856 15.2695 10.279 15.7499C10.7593 16.2302 11.3427 16.4704 12.029 16.4704ZM20.2642 19.7646L21.9113 18.1175L20.676 16.4704H19.3172C19.2348 16.2234 19.1662 15.9592 19.1113 15.6778C19.0564 15.3964 19.029 15.1116 19.029 14.8234C19.029 14.5352 19.0564 14.2572 19.1113 13.9896C19.1662 13.7219 19.2348 13.4508 19.3172 13.1763H20.676L21.9113 11.5293L20.2642 9.88221C19.5231 10.4587 18.926 11.1896 18.4731 12.0749C18.0201 12.9602 17.7937 13.8763 17.7937 14.8234C17.7937 15.7704 18.0201 16.6866 18.4731 17.5719C18.926 18.4572 19.5231 19.1881 20.2642 19.7646ZM8.36425 20.5881H15.6937C15.227 20.0665 14.6745 19.6616 14.0363 19.3734C13.3981 19.0852 12.729 18.941 12.029 18.941C11.329 18.941 10.6633 19.0852 10.0319 19.3734C9.40052 19.6616 8.84464 20.0665 8.36425 20.5881ZM12.029 14.8234C11.7956 14.8234 11.6 14.7445 11.4422 14.5866C11.2843 14.4288 11.2054 14.2332 11.2054 13.9999C11.2054 13.7665 11.2843 13.5709 11.4422 13.4131C11.6 13.2552 11.7956 13.1763 12.029 13.1763C12.2623 13.1763 12.4579 13.2552 12.6157 13.4131C12.7736 13.5709 12.8525 13.7665 12.8525 13.9999C12.8525 14.2332 12.7736 14.4288 12.6157 14.5866C12.4579 14.7445 12.2623 14.8234 12.029 14.8234Z" fill="white"/>
</g>
</svg>
