<svg width="29" height="29" viewBox="0 0 29 29" fill="none" xmlns="http://www.w3.org/2000/svg">
<ellipse cx="14.5" cy="14.4118" rx="14" ry="14.4118" fill="#61E5FA"/>
<mask id="mask0_448_37053" style="mask-type:alpha" maskUnits="userSpaceOnUse" x="4" y="4" width="21" height="21">
<rect x="4.61719" y="4.94116" width="19.7647" height="19.7647" fill="#D9D9D9"/>
</mask>
<g mask="url(#mask0_448_37053)">
<path d="M10.3806 21.4117V12.3323C10.3806 11.8793 10.5453 11.495 10.8747 11.1793C11.2041 10.8637 11.5953 10.7058 12.0483 10.7058H21.0865C21.5394 10.7058 21.9272 10.8671 22.2497 11.1896C22.5723 11.5122 22.7336 11.8999 22.7336 12.3529V18.9411L18.6159 23.0587H12.0277C11.5747 23.0587 11.187 22.8975 10.8644 22.5749C10.5419 22.2524 10.3806 21.8646 10.3806 21.4117ZM6.28355 10.0882C6.2012 9.63522 6.29042 9.22689 6.5512 8.86316C6.81198 8.49944 7.16885 8.2764 7.62179 8.19404L16.5571 6.60875C17.01 6.5264 17.4184 6.61561 17.7821 6.8764C18.1458 7.13718 18.3688 7.49404 18.4512 7.94698L18.6571 9.05875H16.9688L16.8247 8.23522L7.91002 9.82051L8.73355 14.4735V20.2176C8.51395 20.094 8.32522 19.9293 8.16738 19.7235C8.00953 19.5176 7.91002 19.2842 7.86885 19.0235L6.28355 10.0882ZM12.0277 12.3529V21.4117H17.7924V18.1176H21.0865V12.3529H12.0277Z" fill="white"/>
</g>
</svg>
