<svg width="331" height="195" viewBox="0 0 331 195" fill="none" xmlns="http://www.w3.org/2000/svg">
<rect x="27.5" y="33.5" width="277" height="143" rx="6.5" stroke="#C4F5FD" stroke-width="3"/>
<rect x="290.094" y="17" width="44" height="18" rx="9" transform="rotate(26.7227 290.094 17)" fill="#4AB906"/>
<path d="M289.143 29.9559L290.159 28.4167L289.53 28.1001L289.757 27.6499L290.443 27.9953L291.19 26.8847L290.511 26.5429L290.738 26.0927L291.467 26.4597L292.39 25.0884L292.812 25.3006L291.889 26.6719L292.953 27.2079L293.876 25.8366L294.305 26.0525L293.382 27.4238L294.025 27.7475L293.798 28.1977L293.105 27.8488L292.358 28.9594L293.044 29.3047L292.817 29.7549L292.074 29.3808L291.058 30.92L290.629 30.7041L291.646 29.1649L290.588 28.6325L289.564 30.1681L289.143 29.9559ZM290.865 28.2075L291.929 28.7435L292.677 27.6329L291.612 27.0969L290.865 28.2075ZM297.241 27.0111L297.734 27.2593L297.418 27.8881C297.211 28.2978 296.942 28.6429 296.61 28.9235C296.282 29.2064 295.913 29.4117 295.503 29.5393C295.099 29.6647 294.682 29.7052 294.25 29.6611L294.187 29.0384C294.476 29.0702 294.755 29.0615 295.025 29.0121C295.301 28.9604 295.56 28.8729 295.802 28.7495C296.048 28.6285 296.266 28.4729 296.458 28.2826C296.649 28.0923 296.805 27.8781 296.925 27.6399L297.241 27.0111ZM297.348 27.0651L297.841 27.3133L297.525 27.9421C297.407 28.1755 297.333 28.4186 297.301 28.6713C297.274 28.9265 297.285 29.1829 297.335 29.4406C297.384 29.6984 297.47 29.9479 297.594 30.1891C297.722 30.4327 297.885 30.655 298.082 30.8559L297.552 31.18C297.262 30.8668 297.041 30.5167 296.889 30.1299C296.745 29.7407 296.683 29.3363 296.703 28.9166C296.723 28.4968 296.833 28.0893 297.032 27.6939L297.348 27.0651ZM294.573 30.5672L298.889 32.74L297.756 34.9908L297.163 34.6923L298.051 32.9273L294.329 31.0531L294.573 30.5672ZM300.418 28.2255L301.012 28.5241L299.055 32.4113L298.461 32.1127L300.418 28.2255ZM306.713 31.3946L307.306 31.6931L304.95 36.3735L304.357 36.0749L306.713 31.3946ZM306.156 33.5146L307.3 34.0902L307.051 34.5832L305.908 34.0077L306.156 33.5146ZM301.058 32.3629L301.558 32.6147C302.001 32.8377 302.391 33.0284 302.73 33.1868C303.068 33.3451 303.386 33.4784 303.684 33.5865C303.982 33.6947 304.288 33.7921 304.603 33.8788L304.429 34.4007C304.101 34.3068 303.782 34.2033 303.475 34.0904C303.172 33.9799 302.848 33.8466 302.503 33.6906C302.16 33.5299 301.762 33.3356 301.31 33.1077L300.809 32.8559L301.058 32.3629ZM302.31 29.8762L305.161 31.3116L304.916 31.7975L302.651 30.6571L301.51 32.9222L300.925 32.6273L302.31 29.8762ZM300.344 35.5057L304.653 37.6749L304.408 38.1608L300.1 35.9916L300.344 35.5057ZM301.164 33.8765L301.75 34.1715L300.819 36.0222L300.233 35.7272L301.164 33.8765ZM310.904 33.7551L315.641 36.1401L315.411 36.5974L310.673 34.2124L310.904 33.7551ZM310.076 35.4522L314.771 37.8157L314.541 38.273L309.846 35.9095L310.076 35.4522ZM311.789 34.4158L312.382 34.7144L311.465 36.5365L310.872 36.2379L311.789 34.4158ZM313.99 35.5238L314.583 35.8224L313.666 37.6445L313.073 37.3459L313.99 35.5238ZM309.012 36.1612L314.85 39.1003L314.608 39.579L308.771 36.64L309.012 36.1612ZM309.194 37.5606L313.574 39.7658L312.858 41.1878L309.071 39.2812L308.679 40.06L308.1 39.7686L308.708 38.561L312.495 40.4677L312.772 39.9175L308.971 38.0036L309.194 37.5606ZM308.194 39.5829L312.752 41.878L312.522 42.3353L307.963 40.0402L308.194 39.5829ZM321.911 39.055L322.476 39.3392L320.055 44.1482L319.49 43.864L321.911 39.055ZM319.897 40.4591L321.119 41.0743L320.874 41.5602L319.652 40.945L319.897 40.4591ZM320.421 38.457L320.979 38.7376L318.712 43.2393L318.155 42.9587L320.421 38.457ZM315.325 43.0475L319.733 45.2671L319.489 45.753L315.08 43.5334L315.325 43.0475ZM316.059 41.5899L316.652 41.8884L315.831 43.5176L315.238 43.219L316.059 41.5899ZM315.63 40.1111L316.051 40.3233C316.356 40.4768 316.64 40.6135 316.902 40.7335C317.168 40.8559 317.433 40.9652 317.695 41.0613C317.957 41.1574 318.23 41.244 318.514 41.3211L318.337 41.8323C318.039 41.748 317.757 41.6565 317.49 41.558C317.223 41.4595 316.954 41.3478 316.682 41.2231C316.41 41.0983 316.12 40.958 315.81 40.8021L315.389 40.5898L315.63 40.1111ZM317.033 37.2885L319.462 38.5116L318.531 40.3623L316.687 39.4342L316.075 40.649L315.504 40.3612L316.346 38.6891L318.189 39.6172L318.65 38.7026L316.792 37.7673L317.033 37.2885Z" fill="white"/>
<rect x="287" y="46" width="44" height="18" rx="9" fill="#CA6EF5"/>
<path d="M291.976 58L292.192 56.168H291.488V55.664H292.256L292.424 54.336H291.664V53.832H292.48L292.688 52.192H293.16L292.952 53.832H294.144L294.352 52.192H294.832L294.624 53.832H295.344V54.336H294.568L294.4 55.664H295.168V56.168H294.336L294.12 58H293.64L293.856 56.168H292.672L292.448 58H291.976ZM292.728 55.664H293.92L294.088 54.336H292.896L292.728 55.664ZM301.517 51.384H302.157V58.624H301.517V51.384ZM299.349 54.184H300.581V54.736H299.349V54.184ZM300.157 51.544H300.781V58.264H300.157V51.544ZM295.989 52.624H299.549V53.168H295.989V52.624ZM297.757 53.656C298.056 53.656 298.317 53.728 298.541 53.872C298.771 54.0107 298.949 54.2027 299.077 54.448C299.211 54.6933 299.277 54.9787 299.277 55.304C299.277 55.6293 299.211 55.9173 299.077 56.168C298.949 56.4133 298.771 56.608 298.541 56.752C298.317 56.8907 298.056 56.96 297.757 56.96C297.469 56.96 297.211 56.8907 296.981 56.752C296.752 56.608 296.571 56.4133 296.437 56.168C296.309 55.9173 296.245 55.6293 296.245 55.304C296.245 54.9787 296.309 54.6933 296.437 54.448C296.571 54.2027 296.752 54.0107 296.981 53.872C297.211 53.728 297.469 53.656 297.757 53.656ZM297.757 54.216C297.581 54.216 297.424 54.264 297.285 54.36C297.147 54.4507 297.035 54.5787 296.949 54.744C296.869 54.904 296.829 55.0907 296.829 55.304C296.829 55.5173 296.869 55.7067 296.949 55.872C297.035 56.0373 297.147 56.168 297.285 56.264C297.424 56.3547 297.581 56.4 297.757 56.4C297.944 56.4 298.107 56.3547 298.245 56.264C298.384 56.168 298.493 56.0373 298.573 55.872C298.653 55.7067 298.693 55.5173 298.693 55.304C298.693 55.0907 298.653 54.904 298.573 54.744C298.493 54.5787 298.384 54.4507 298.245 54.36C298.107 54.264 297.944 54.216 297.757 54.216ZM297.445 51.576H298.101V52.936H297.445V51.576ZM305.293 51.944C305.645 51.944 305.957 52.048 306.229 52.256C306.501 52.4587 306.712 52.7493 306.861 53.128C307.016 53.5067 307.093 53.952 307.093 54.464C307.093 54.976 307.016 55.4213 306.861 55.8C306.712 56.1787 306.501 56.472 306.229 56.68C305.957 56.888 305.645 56.992 305.293 56.992C304.946 56.992 304.634 56.888 304.357 56.68C304.085 56.472 303.872 56.1787 303.717 55.8C303.568 55.4213 303.493 54.976 303.493 54.464C303.493 53.952 303.568 53.5067 303.717 53.128C303.872 52.7493 304.085 52.4587 304.357 52.256C304.634 52.048 304.946 51.944 305.293 51.944ZM305.293 52.536C305.064 52.536 304.861 52.616 304.685 52.776C304.509 52.9307 304.37 53.1547 304.269 53.448C304.173 53.736 304.125 54.0747 304.125 54.464C304.125 54.8533 304.173 55.1947 304.269 55.488C304.37 55.776 304.509 56 304.685 56.16C304.861 56.32 305.064 56.4 305.293 56.4C305.528 56.4 305.733 56.32 305.909 56.16C306.085 56 306.221 55.776 306.317 55.488C306.418 55.1947 306.469 54.8533 306.469 54.464C306.469 54.0747 306.418 53.736 306.317 53.448C306.221 53.1547 306.085 52.9307 305.909 52.776C305.733 52.616 305.528 52.536 305.293 52.536ZM308.661 51.384H309.317V58.632H308.661V51.384ZM306.877 54.144H308.957V54.68H306.877V54.144ZM313.121 51.608H318.425V52.12H313.121V51.608ZM313.145 53.496H318.401V54.008H313.145V53.496ZM314.209 51.8H314.873V53.84H314.209V51.8ZM316.673 51.8H317.337V53.84H316.673V51.8ZM312.513 54.608H319.049V55.144H312.513V54.608ZM313.305 55.776H318.209V57.368H313.969V58.24H313.321V56.888H317.561V56.272H313.305V55.776ZM313.321 58.032H318.425V58.544H313.321V58.032ZM325.337 51.392H325.969V56.776H325.337V51.392ZM324.169 53.552H325.537V54.096H324.169V53.552ZM323.737 51.528H324.361V56.568H323.737V51.528ZM321.249 57.92H326.185V58.464H321.249V57.92ZM321.249 56.288H321.913V58.112H321.249V56.288ZM320.201 55.16H320.673C321.014 55.16 321.329 55.1547 321.617 55.144C321.91 55.1333 322.195 55.112 322.473 55.08C322.75 55.048 323.033 55.0027 323.321 54.944L323.393 55.48C323.089 55.5387 322.795 55.584 322.513 55.616C322.23 55.648 321.939 55.6693 321.641 55.68C321.342 55.6907 321.019 55.696 320.673 55.696H320.201V55.16ZM320.185 52.008H322.905V54.08H320.841V55.44H320.201V53.568H322.265V52.544H320.185V52.008Z" fill="white"/>
<rect x="271" y="177" width="44" height="18" rx="9" fill="#F39507"/>
<path d="M275.976 189L276.192 187.168H275.488V186.664H276.256L276.424 185.336H275.664V184.832H276.48L276.688 183.192H277.16L276.952 184.832H278.144L278.352 183.192H278.832L278.624 184.832H279.344V185.336H278.568L278.4 186.664H279.168V187.168H278.336L278.12 189H277.64L277.856 187.168H276.672L276.448 189H275.976ZM276.728 186.664H277.92L278.088 185.336H276.896L276.728 186.664ZM285.517 182.384H286.157V189.624H285.517V182.384ZM284.365 185.296H285.757V185.848H284.365V185.296ZM283.941 182.544H284.573V189.248H283.941V182.544ZM280.077 183.296H283.421V183.84H280.077V183.296ZM280.005 187.84L279.925 187.28C280.165 187.28 280.435 187.28 280.733 187.28C281.037 187.275 281.352 187.267 281.677 187.256C282.008 187.24 282.333 187.221 282.653 187.2C282.979 187.173 283.28 187.141 283.557 187.104L283.597 187.592C283.224 187.661 282.816 187.715 282.373 187.752C281.936 187.789 281.512 187.813 281.101 187.824C280.691 187.835 280.325 187.84 280.005 187.84ZM280.693 183.648H281.301V187.432H280.693V183.648ZM282.197 183.648H282.805V187.432H282.197V183.648ZM291.197 183.456H292.821V184H291.197V183.456ZM291.197 184.936H292.821V185.48H291.197V184.936ZM289.181 182.792H289.717V183.712C289.717 184.187 289.634 184.632 289.469 185.048C289.304 185.459 289.072 185.819 288.773 186.128C288.48 186.432 288.133 186.667 287.733 186.832L287.381 186.304C287.653 186.197 287.898 186.059 288.117 185.888C288.336 185.712 288.522 185.509 288.677 185.28C288.837 185.051 288.96 184.805 289.045 184.544C289.136 184.277 289.181 184 289.181 183.712V182.792ZM289.301 182.792H289.837V183.712C289.837 183.979 289.877 184.237 289.957 184.488C290.042 184.739 290.162 184.973 290.317 185.192C290.472 185.411 290.656 185.605 290.869 185.776C291.088 185.947 291.325 186.083 291.581 186.184L291.213 186.704C290.834 186.549 290.501 186.323 290.213 186.024C289.925 185.72 289.701 185.371 289.541 184.976C289.381 184.581 289.301 184.16 289.301 183.712V182.792ZM292.653 182.392H293.317V187.792H292.653V182.392ZM288.669 188.92H293.485V189.464H288.669V188.92ZM288.669 187.24H289.333V189.208H288.669V187.24ZM297.121 182.608H302.425V183.12H297.121V182.608ZM297.145 184.496H302.401V185.008H297.145V184.496ZM298.209 182.8H298.873V184.84H298.209V182.8ZM300.673 182.8H301.337V184.84H300.673V182.8ZM296.513 185.608H303.049V186.144H296.513V185.608ZM297.305 186.776H302.209V188.368H297.969V189.24H297.321V187.888H301.561V187.272H297.305V186.776ZM297.321 189.032H302.425V189.544H297.321V189.032ZM309.337 182.392H309.969V187.776H309.337V182.392ZM308.169 184.552H309.537V185.096H308.169V184.552ZM307.737 182.528H308.361V187.568H307.737V182.528ZM305.249 188.92H310.185V189.464H305.249V188.92ZM305.249 187.288H305.913V189.112H305.249V187.288ZM304.201 186.16H304.673C305.014 186.16 305.329 186.155 305.617 186.144C305.91 186.133 306.195 186.112 306.473 186.08C306.75 186.048 307.033 186.003 307.321 185.944L307.393 186.48C307.089 186.539 306.795 186.584 306.513 186.616C306.23 186.648 305.939 186.669 305.641 186.68C305.342 186.691 305.019 186.696 304.673 186.696H304.201V186.16ZM304.185 183.008H306.905V185.08H304.841V186.44H304.201V184.568H306.265V183.544H304.185V183.008Z" fill="white"/>
<rect x="266.167" y="163.419" width="59" height="18" rx="9" transform="rotate(-6.5415 266.167 163.419)" fill="#08A7D9"/>
<path d="M272.617 174.758L272.623 172.914L271.924 172.994L271.866 172.493L272.629 172.406L272.645 171.067L271.89 171.154L271.833 170.653L272.643 170.56L272.663 168.907L273.132 168.853L273.112 170.506L274.296 170.37L274.316 168.717L274.793 168.663L274.773 170.316L275.489 170.234L275.546 170.734L274.775 170.823L274.759 172.161L275.522 172.074L275.58 172.575L274.753 172.669L274.747 174.514L274.271 174.569L274.276 172.724L273.1 172.859L273.086 174.705L272.617 174.758ZM273.098 172.352L274.283 172.216L274.298 170.878L273.114 171.013L273.098 172.352ZM279.125 170.227L280.476 170.073L280.539 170.621L279.188 170.776L279.125 170.227ZM277.549 169.402L278.057 169.343L278.1 169.717C278.141 170.072 278.144 170.429 278.11 170.787C278.076 171.145 278.005 171.489 277.898 171.818C277.796 172.146 277.656 172.447 277.478 172.719C277.305 172.991 277.096 173.222 276.849 173.411L276.402 172.955C276.629 172.784 276.826 172.579 276.992 172.34C277.157 172.096 277.288 171.834 277.385 171.554C277.486 171.269 277.555 170.974 277.589 170.669C277.624 170.365 277.625 170.067 277.592 169.775L277.549 169.402ZM277.668 169.388L278.177 169.33L278.219 169.703C278.252 169.984 278.319 170.264 278.42 170.542C278.521 170.815 278.653 171.071 278.814 171.31C278.976 171.549 279.161 171.761 279.371 171.947C279.584 172.126 279.821 172.271 280.081 172.381L279.764 172.916C279.391 172.76 279.061 172.524 278.772 172.209C278.483 171.887 278.247 171.515 278.064 171.09C277.882 170.665 277.764 170.223 277.711 169.762L277.668 169.388ZM276.154 169.038L279.437 168.662L279.499 169.202L276.216 169.579L276.154 169.038ZM277.367 167.82L277.995 167.748L278.165 169.226L277.537 169.298L277.367 167.82ZM281.335 167.099L281.963 167.027L282.788 174.22L282.16 174.292L281.335 167.099ZM279.916 167.431L280.536 167.36L281.298 174.013L280.679 174.084L279.916 167.431ZM287.414 168.15L288.884 167.981L288.946 168.522L287.476 168.69L287.414 168.15ZM287.566 169.549L289.029 169.382L289.091 169.922L287.628 170.09L287.566 169.549ZM283.277 167.682L287.307 167.22L287.368 167.752L283.339 168.214L283.277 167.682ZM285.415 168.347C285.738 168.31 286.028 168.333 286.285 168.416C286.541 168.499 286.75 168.634 286.911 168.819C287.071 169 287.167 169.225 287.198 169.495C287.228 169.76 287.186 170.001 287.071 170.218C286.956 170.43 286.783 170.606 286.552 170.745C286.321 170.884 286.044 170.972 285.72 171.009C285.403 171.046 285.115 171.022 284.859 170.939C284.602 170.856 284.394 170.724 284.234 170.544C284.073 170.358 283.977 170.133 283.947 169.868C283.916 169.598 283.958 169.357 284.073 169.145C284.188 168.928 284.361 168.749 284.592 168.61C284.823 168.471 285.097 168.383 285.415 168.347ZM285.473 168.855C285.171 168.89 284.936 168.992 284.768 169.162C284.605 169.331 284.538 169.542 284.567 169.797C284.595 170.046 284.709 170.237 284.906 170.37C285.109 170.497 285.361 170.543 285.663 170.508C285.965 170.474 286.2 170.372 286.369 170.202C286.542 170.027 286.614 169.814 286.586 169.565C286.556 169.311 286.438 169.12 286.23 168.994C286.028 168.867 285.775 168.821 285.473 168.855ZM284.896 166.627L285.548 166.552L285.688 167.776L285.036 167.851L284.896 166.627ZM288.432 166.286L289.092 166.21L289.624 170.851L288.964 170.927L288.432 166.286ZM287.28 171.201C287.779 171.144 288.211 171.142 288.576 171.197C288.942 171.252 289.231 171.361 289.443 171.524C289.661 171.687 289.784 171.899 289.814 172.158C289.843 172.413 289.77 172.644 289.596 172.852C289.426 173.059 289.169 173.231 288.825 173.367C288.481 173.503 288.06 173.6 287.562 173.657C287.064 173.714 286.629 173.715 286.258 173.661C285.892 173.607 285.601 173.498 285.383 173.335C285.171 173.171 285.051 172.962 285.021 172.708C284.992 172.448 285.062 172.215 285.231 172.007C285.406 171.8 285.665 171.628 286.009 171.491C286.359 171.355 286.782 171.258 287.28 171.201ZM287.34 171.717C286.81 171.778 286.398 171.887 286.105 172.044C285.812 172.201 285.678 172.396 285.705 172.63C285.73 172.852 285.904 173.009 286.226 173.101C286.548 173.193 286.974 173.209 287.504 173.148C288.028 173.088 288.434 172.977 288.722 172.815C289.014 172.653 289.148 172.46 289.123 172.238C289.096 172.004 288.922 171.845 288.601 171.758C288.285 171.671 287.864 171.657 287.34 171.717ZM291.248 166.695L295.866 166.166L295.928 166.706L291.31 167.236L291.248 166.695ZM291.136 171.685L297.629 170.94L297.692 171.488L291.199 172.233L291.136 171.685ZM292.454 169.134L293.114 169.058L293.408 171.625L292.748 171.701L292.454 169.134ZM295.652 166.19L296.311 166.115L296.401 166.902C296.436 167.204 296.467 167.517 296.493 167.841C296.525 168.165 296.543 168.515 296.549 168.89C296.559 169.259 296.547 169.671 296.513 170.126L295.854 170.129C295.902 169.474 295.908 168.899 295.873 168.404C295.837 167.903 295.793 167.428 295.742 166.977L295.652 166.19ZM294.234 168.93L294.886 168.855L295.18 171.422L294.529 171.497L294.234 168.93ZM301.854 166.639L303.468 166.454L303.531 167.002L301.917 167.187L301.854 166.639ZM303.055 164.609L303.715 164.533L304.206 168.817L303.546 168.893L303.055 164.609ZM301.863 169.311C302.361 169.254 302.794 169.258 303.161 169.323C303.533 169.388 303.826 169.51 304.04 169.69C304.253 169.864 304.376 170.094 304.409 170.38C304.458 170.804 304.281 171.157 303.878 171.439C303.481 171.721 302.912 171.905 302.17 171.99C301.428 172.075 300.829 172.025 300.373 171.841C299.923 171.657 299.673 171.353 299.625 170.929C299.592 170.643 299.659 170.391 299.828 170.173C300.001 169.949 300.259 169.764 300.601 169.617C300.95 169.47 301.37 169.368 301.863 169.311ZM301.922 169.828C301.562 169.869 301.255 169.936 301.003 170.03C300.751 170.123 300.56 170.239 300.431 170.377C300.307 170.515 300.256 170.674 300.276 170.854C300.296 171.023 300.381 171.161 300.533 171.267C300.69 171.373 300.902 171.445 301.17 171.484C301.437 171.518 301.75 171.514 302.111 171.473C302.476 171.431 302.783 171.364 303.03 171.271C303.281 171.172 303.469 171.054 303.593 170.916C303.722 170.778 303.777 170.624 303.757 170.455C303.737 170.275 303.648 170.132 303.491 170.026C303.339 169.92 303.13 169.85 302.863 169.817C302.601 169.782 302.288 169.786 301.922 169.828ZM299.713 165.733L300.254 165.671L300.32 166.251C300.371 166.691 300.333 167.114 300.208 167.52C300.088 167.92 299.893 168.284 299.624 168.61C299.355 168.93 299.031 169.19 298.651 169.39L298.249 168.904C298.508 168.778 298.737 168.62 298.936 168.431C299.139 168.241 299.308 168.031 299.443 167.801C299.583 167.57 299.681 167.328 299.738 167.075C299.795 166.821 299.809 166.567 299.78 166.313L299.713 165.733ZM299.84 165.718L300.381 165.656L300.446 166.228C300.482 166.536 300.588 166.827 300.764 167.102C300.941 167.377 301.174 167.611 301.464 167.803C301.755 167.995 302.08 168.135 302.439 168.222L302.165 168.785C301.756 168.687 301.391 168.52 301.069 168.283C300.746 168.041 300.481 167.749 300.276 167.408C300.075 167.065 299.952 166.693 299.906 166.29L299.84 165.718ZM298.092 165.709L301.931 165.269L301.993 165.81L298.154 166.25L298.092 165.709ZM307.52 164.322L312.789 163.718L312.848 164.227L307.578 164.831L307.52 164.322ZM307.759 166.195L312.98 165.596L313.039 166.105L307.817 166.704L307.759 166.195ZM308.623 164.389L309.282 164.313L309.515 166.34L308.855 166.416L308.623 164.389ZM311.071 164.108L311.73 164.033L311.963 166.059L311.303 166.135L311.071 164.108ZM307.257 167.372L313.751 166.627L313.812 167.16L307.319 167.904L307.257 167.372ZM308.177 168.442L313.049 167.883L313.231 169.465L309.018 169.948L309.118 170.814L308.474 170.888L308.32 169.545L312.532 169.062L312.462 168.45L308.234 168.935L308.177 168.442ZM308.45 170.682L313.521 170.1L313.579 170.609L308.509 171.19L308.45 170.682ZM319.631 162.716L320.259 162.644L320.872 167.993L320.244 168.065L319.631 162.716ZM318.717 164.995L320.076 164.839L320.138 165.38L318.779 165.535L318.717 164.995ZM318.057 163.033L318.677 162.962L319.251 167.969L318.631 168.041L318.057 163.033ZM316.313 169.667L321.217 169.105L321.279 169.645L316.375 170.208L316.313 169.667ZM316.127 168.046L316.787 167.97L316.995 169.782L316.335 169.858L316.127 168.046ZM314.958 167.045L315.427 166.991C315.766 166.952 316.078 166.911 316.363 166.867C316.653 166.823 316.934 166.77 317.206 166.706C317.478 166.643 317.753 166.566 318.033 166.475L318.165 166.999C317.87 167.092 317.584 167.17 317.307 167.234C317.029 167.298 316.743 167.353 316.448 167.397C316.152 167.442 315.832 167.484 315.488 167.523L315.019 167.577L314.958 167.045ZM314.583 163.915L317.285 163.605L317.521 165.664L315.471 165.899L315.625 167.25L314.99 167.323L314.776 165.463L316.827 165.228L316.71 164.21L314.644 164.447L314.583 163.915Z" fill="white"/>
<rect x="0.691406" y="174.083" width="59" height="18" rx="9" transform="rotate(-2.09274 0.691406 174.083)" fill="#E384CE"/>
<path d="M6.24295 185.888L6.3919 184.05L5.68837 184.076L5.66997 183.572L6.43746 183.544L6.55685 182.211L5.79736 182.238L5.77895 181.735L6.59441 181.705L6.74238 180.058L7.21407 180.041L7.06609 181.688L8.2573 181.644L8.40527 179.998L8.88495 179.98L8.73698 181.627L9.4565 181.6L9.4749 182.104L8.69942 182.132L8.58003 183.466L9.34751 183.437L9.36592 183.941L8.53447 183.972L8.38552 185.81L7.90584 185.828L8.05479 183.989L6.87158 184.032L6.71463 185.871L6.24295 185.888ZM6.90914 183.527L8.10035 183.483L8.21974 182.15L7.02853 182.193L6.90914 183.527ZM12.9403 179.52L13.524 179.498L13.5444 180.058C13.5559 180.372 13.5108 180.673 13.4092 180.959C13.313 181.246 13.1734 181.515 12.9905 181.767C12.8127 182.014 12.602 182.238 12.3586 182.439C12.1204 182.64 11.8625 182.812 11.5849 182.955C11.3126 183.099 11.0338 183.21 10.7486 183.29L10.4326 182.749C10.6812 182.687 10.9286 182.595 11.1751 182.474C11.4268 182.353 11.6617 182.208 11.8797 182.04C12.0975 181.867 12.288 181.676 12.4511 181.467C12.6196 181.258 12.7476 181.037 12.8352 180.804C12.9279 180.566 12.9698 180.324 12.9608 180.079L12.9403 179.52ZM13.0683 179.515L13.6359 179.494L13.6563 180.054C13.6653 180.299 13.7247 180.537 13.8345 180.768C13.9442 180.993 14.088 181.204 14.2659 181.4C14.4492 181.597 14.6558 181.773 14.8857 181.93C15.1154 182.082 15.3576 182.212 15.6124 182.32C15.8723 182.423 16.1311 182.493 16.3886 182.532L16.105 183.094C15.8147 183.036 15.5285 182.945 15.2465 182.822C14.9644 182.699 14.6947 182.546 14.4372 182.363C14.185 182.18 13.9586 181.972 13.7579 181.739C13.5571 181.501 13.3982 181.243 13.2813 180.964C13.1644 180.686 13.1002 180.389 13.0887 180.075L13.0683 179.515ZM10.2367 184.838L16.7924 184.598L16.8125 185.15L10.2569 185.39L10.2367 184.838ZM20.5207 179.299L21.2082 179.274C21.2312 179.902 21.1377 180.482 20.9276 181.013C20.7173 181.538 20.3742 182.007 19.8983 182.419C19.4223 182.832 18.792 183.18 18.0072 183.465L17.7318 182.939C18.2481 182.755 18.686 182.544 19.0456 182.307C19.4103 182.064 19.7048 181.799 19.9292 181.514C20.1536 181.228 20.3131 180.921 20.4078 180.592C20.5024 180.257 20.543 179.909 20.5298 179.547L20.5207 179.299ZM17.9144 179.394L20.8805 179.286L20.9003 179.829L17.9343 179.938L17.9144 179.394ZM20.4845 180.717L20.5014 181.181L17.7429 181.49L17.6111 180.95L20.4845 180.717ZM22.6434 178.677L23.307 178.653L23.4989 183.905L22.8353 183.929L22.6434 178.677ZM18.9022 185.394L23.771 185.216L23.7908 185.76L18.9221 185.937L18.9022 185.394ZM18.8403 183.699L19.5038 183.675L19.5757 185.641L18.9121 185.666L18.8403 183.699ZM27.2947 179.355L27.9262 179.332C27.9434 179.801 27.9176 180.264 27.8489 180.72C27.7855 181.176 27.6602 181.618 27.4731 182.047C27.2857 182.47 27.0202 182.872 26.6766 183.253C26.3329 183.633 25.8948 183.986 25.3623 184.309L24.9693 183.851C25.4446 183.567 25.8363 183.259 26.1444 182.928C26.4525 182.596 26.6932 182.246 26.8665 181.877C27.0449 181.502 27.1641 181.113 27.2241 180.711C27.2893 180.303 27.314 179.886 27.2985 179.459L27.2947 179.355ZM25.1521 179.434L27.5425 179.346L27.5624 179.89L25.172 179.977L25.1521 179.434ZM27.2758 181.029L27.2942 181.533L24.9842 181.849L24.8672 181.277L27.2758 181.029ZM27.4317 181.352L29.0945 181.291L29.1144 181.835L27.4515 181.895L27.4317 181.352ZM30.2454 178.391L30.885 178.368L31.1494 185.603L30.5098 185.626L30.2454 178.391ZM28.7494 178.638L29.373 178.615L29.617 185.291L28.9934 185.313L28.7494 178.638ZM34.0387 178.813C34.3905 178.8 34.7061 178.892 34.9855 179.09C35.2647 179.283 35.4859 179.566 35.6489 179.939C35.8173 180.311 35.9109 180.754 35.9295 181.265C35.9482 181.777 35.8872 182.225 35.7465 182.609C35.6111 182.993 35.4113 183.294 35.147 183.511C34.8828 183.729 34.5748 183.844 34.2231 183.857C33.8766 183.87 33.561 183.777 33.2763 183.58C32.9969 183.382 32.773 183.096 32.6046 182.724C32.4415 182.351 32.3506 181.908 32.3319 181.397C32.3133 180.885 32.3716 180.437 32.507 180.053C32.6477 179.669 32.8503 179.371 33.1147 179.159C33.3843 178.941 33.6923 178.825 34.0387 178.813ZM34.0603 179.404C33.8312 179.413 33.6316 179.5 33.4615 179.666C33.2913 179.827 33.1609 180.056 33.0703 180.353C32.9849 180.644 32.9493 180.985 32.9635 181.374C32.9777 181.763 33.0382 182.102 33.1448 182.392C33.2566 182.676 33.4034 182.895 33.5851 183.048C33.7668 183.202 33.9723 183.274 34.2014 183.266C34.436 183.257 34.6382 183.17 34.8083 183.003C34.9783 182.837 35.106 182.608 35.1915 182.317C35.282 182.02 35.3202 181.677 35.306 181.288C35.2917 180.899 35.2287 180.562 35.117 180.278C35.0103 179.989 34.8662 179.77 34.6847 179.622C34.503 179.468 34.2949 179.396 34.0603 179.404ZM37.384 178.13L38.0396 178.106L38.3043 185.349L37.6487 185.373L37.384 178.13ZM35.702 180.953L37.7806 180.877L37.8002 181.413L35.7216 181.489L35.702 180.953ZM41.8497 178.191L47.1501 177.997L47.1688 178.509L41.8684 178.703L41.8497 178.191ZM41.9426 180.077L47.1951 179.885L47.2138 180.397L41.9613 180.589L41.9426 180.077ZM42.944 178.343L43.6075 178.319L43.682 180.358L43.0185 180.382L42.944 178.343ZM45.4063 178.253L46.0699 178.229L46.1444 180.268L45.4808 180.292L45.4063 178.253ZM41.3516 181.211L47.8833 180.973L47.9028 181.508L41.3712 181.747L41.3516 181.211ZM42.1858 182.35L47.0865 182.17L47.1446 183.761L42.9074 183.916L42.9393 184.788L42.2917 184.811L42.2423 183.46L46.4795 183.305L46.457 182.69L42.2039 182.845L42.1858 182.35ZM42.2841 184.603L47.3847 184.417L47.4034 184.929L42.3028 185.115L42.2841 184.603ZM54.049 177.529L54.6806 177.506L54.8772 182.886L54.2456 182.91L54.049 177.529ZM52.9607 179.73L54.3278 179.68L54.3476 180.224L52.9805 180.274L52.9607 179.73ZM52.455 177.723L53.0786 177.701L53.2627 182.737L52.6391 182.76L52.455 177.723ZM50.2021 184.202L55.1348 184.022L55.1547 184.565L50.222 184.746L50.2021 184.202ZM50.1425 182.571L50.8061 182.547L50.8727 184.37L50.2091 184.394L50.1425 182.571ZM49.054 181.482L49.5257 181.465C49.8668 181.452 50.1811 181.436 50.4685 181.414C50.7613 181.393 51.0456 181.361 51.3216 181.319C51.5976 181.277 51.8784 181.222 52.1641 181.152L52.2556 181.685C51.9539 181.755 51.6625 181.811 51.3811 181.853C51.0998 181.896 50.8101 181.928 50.5121 181.949C50.214 181.971 49.8917 181.988 49.5453 182.001L49.0736 182.018L49.054 181.482ZM48.9229 178.333L51.6411 178.234L51.7168 180.304L49.6542 180.38L49.7038 181.739L49.0643 181.762L48.9959 179.891L51.0585 179.816L51.0211 178.793L48.9425 178.869L48.9229 178.333Z" fill="white"/>
<rect x="6.42969" y="149" width="59" height="18" rx="9" transform="rotate(17.5579 6.42969 149)" fill="#F6C200"/>
<path d="M7.68784 161.985L8.44644 160.303L7.77524 160.091L7.92728 159.61L8.6595 159.842L9.22029 158.626L8.49569 158.397L8.64774 157.917L9.42572 158.163L10.1188 156.662L10.5688 156.804L9.87573 158.305L11.0122 158.665L11.7052 157.164L12.1629 157.309L11.4698 158.81L12.1563 159.027L12.0043 159.507L11.2644 159.273L10.7036 160.489L11.4358 160.72L11.2838 161.201L10.4906 160.95L9.73196 162.631L9.27432 162.487L10.0329 160.805L8.90408 160.448L8.13785 162.127L7.68784 161.985ZM9.10951 159.984L10.246 160.344L10.8068 159.128L9.6703 158.769L9.10951 159.984ZM18.1934 158.369L18.8264 158.57L16.6399 165.48L16.0069 165.28L18.1934 158.369ZM17.82 161.247L19.0937 161.65L18.9272 162.176L17.6534 161.773L17.82 161.247ZM12.3508 161.639L12.8923 161.81C13.3144 161.944 13.7024 162.061 14.0565 162.162C14.4173 162.259 14.766 162.342 15.1027 162.409C15.4445 162.478 15.7954 162.536 16.1553 162.583L16.0603 163.148C15.685 163.097 15.324 163.036 14.9771 162.965C14.6353 162.896 14.2823 162.81 13.9181 162.706C13.5538 162.602 13.1556 162.481 12.7234 162.344L12.1818 162.173L12.3508 161.639ZM13.6106 157.658L16.8064 158.669L16.6423 159.188L14.0719 158.374L12.899 162.081L12.2736 161.883L13.6106 157.658ZM25.5531 160.698L26.1862 160.898L23.9997 167.809L23.3666 167.608L25.5531 160.698ZM22.379 160.281C22.7197 160.389 22.9883 160.583 23.1849 160.863C23.3882 161.14 23.5065 161.482 23.5397 161.89C23.578 162.299 23.5199 162.748 23.3655 163.236C23.211 163.724 23.0004 164.125 22.7336 164.438C22.4719 164.752 22.1775 164.967 21.8503 165.081C21.5283 165.197 21.1969 165.202 20.8562 165.094C20.5155 164.986 20.2443 164.791 20.0427 164.509C19.841 164.227 19.721 163.882 19.6827 163.472C19.6495 163.065 19.7101 162.617 19.8645 162.129C20.019 161.64 20.2271 161.239 20.4888 160.925C20.7555 160.612 21.0517 160.401 21.3773 160.291C21.7044 160.177 22.0383 160.173 22.379 160.281ZM22.2004 160.845C21.9716 160.773 21.7466 160.786 21.5255 160.884C21.311 160.978 21.1112 161.15 20.9261 161.399C20.7426 161.643 20.5922 161.95 20.4747 162.322C20.3573 162.693 20.3026 163.034 20.3107 163.344C20.3205 163.649 20.3851 163.904 20.5046 164.11C20.6293 164.317 20.806 164.457 21.0348 164.529C21.2585 164.6 21.4784 164.586 21.6945 164.486C21.9156 164.389 22.118 164.218 22.3015 163.974C22.4866 163.725 22.6378 163.414 22.7553 163.043C22.8727 162.672 22.9266 162.334 22.9169 162.029C22.9087 161.718 22.8416 161.462 22.7153 161.26C22.5958 161.054 22.4242 160.916 22.2004 160.845ZM29.2278 162.448C29.5634 162.554 29.8294 162.748 30.026 163.028C30.2242 163.303 30.3374 163.644 30.3655 164.05C30.3988 164.458 30.3381 164.906 30.1837 165.394C30.0292 165.882 29.8212 166.283 29.5595 166.597C29.3029 166.913 29.0135 167.13 28.6914 167.246C28.3694 167.362 28.0405 167.367 27.7049 167.261C27.3744 167.156 27.1083 166.963 26.9067 166.681C26.7101 166.401 26.5952 166.057 26.5619 165.649C26.5338 165.243 26.5969 164.796 26.7514 164.308C26.9059 163.819 27.1114 163.417 27.368 163.101C27.6297 162.787 27.9208 162.574 28.2412 162.463C28.5684 162.349 28.8972 162.343 29.2278 162.448ZM29.0492 163.012C28.8305 162.943 28.6132 162.958 28.3971 163.058C28.1826 163.152 27.9828 163.324 27.7977 163.573C27.6193 163.819 27.4714 164.127 27.354 164.498C27.2365 164.869 27.1793 165.209 27.1823 165.518C27.1921 165.823 27.2567 166.079 27.3762 166.284C27.4958 166.49 27.6649 166.627 27.8835 166.696C28.1072 166.767 28.3271 166.753 28.5432 166.653C28.7593 166.554 28.9565 166.381 29.1349 166.136C29.32 165.887 29.4713 165.577 29.5888 165.205C29.7062 164.834 29.7601 164.496 29.7503 164.191C29.7473 163.882 29.6852 163.628 29.5641 163.427C29.4445 163.221 29.2729 163.083 29.0492 163.012ZM32.6078 162.93L33.2332 163.128L31.0467 170.038L30.4213 169.84L32.6078 162.93ZM30.0743 165.023L32.0574 165.651L31.8957 166.162L29.9126 165.534L30.0743 165.023ZM34.1982 167.528L38.9347 169.027L38.773 169.538L34.0365 168.039L34.1982 167.528ZM32.8398 169.037L39.0942 171.016L38.9277 171.542L32.6733 169.563L32.8398 169.037ZM35.1877 164.401L39.8556 165.878L39.6915 166.397L35.6642 165.122L34.7906 167.883L34.1499 167.681L35.1877 164.401ZM35.145 166.074L39.2179 167.363L39.0562 167.874L34.9833 166.585L35.145 166.074ZM43.8094 166.709L48.8663 168.309L48.7118 168.798L43.6549 167.198L43.8094 166.709ZM43.2627 168.517L48.2738 170.102L48.1194 170.59L43.1082 169.005L43.2627 168.517ZM44.7888 167.221L45.4218 167.421L44.8064 169.366L44.1734 169.166L44.7888 167.221ZM47.138 167.964L47.771 168.164L47.1556 170.109L46.5226 169.909L47.138 167.964ZM42.3247 169.386L48.5562 171.358L48.3945 171.869L42.163 169.897L42.3247 169.386ZM42.7274 170.739L47.403 172.218L46.9227 173.736L42.8802 172.457L42.6172 173.288L41.9994 173.093L42.4072 171.804L46.4497 173.083L46.6355 172.496L42.5778 171.212L42.7274 170.739ZM42.0621 172.894L46.9283 174.434L46.7739 174.922L41.9077 173.383L42.0621 172.894ZM55.5208 170.188L56.1234 170.379L54.4992 175.512L53.8966 175.322L55.5208 170.188ZM53.7556 171.895L55.0599 172.308L54.8958 172.827L53.5915 172.414L53.7556 171.895ZM53.9543 169.835L54.5493 170.024L53.0288 174.829L52.4339 174.641L53.9543 169.835ZM49.654 175.179L54.36 176.668L54.1959 177.187L49.4899 175.698L49.654 175.179ZM50.1463 173.623L50.7794 173.823L50.2291 175.562L49.5961 175.362L50.1463 173.623ZM49.4874 172.232L49.9374 172.374C50.2628 172.477 50.5645 172.567 50.8423 172.643C51.1251 172.722 51.4036 172.788 51.6777 172.841C51.9518 172.894 52.2349 172.936 52.5272 172.967L52.4342 173.5C52.1266 173.464 51.8333 173.419 51.5541 173.364C51.275 173.309 50.9914 173.242 50.7034 173.162C50.4155 173.082 50.1062 172.99 49.7757 172.885L49.3257 172.743L49.4874 172.232ZM50.423 169.222L53.0163 170.042L52.3912 172.018L50.4234 171.395L50.0131 172.692L49.4029 172.499L49.9677 170.714L51.9355 171.336L52.2444 170.36L50.2613 169.733L50.423 169.222Z" fill="white"/>
<path d="M10.0005 39.5C6.40053 54.7 18.5005 62.5 25.0005 64.5H27V39.5C26.6 35.5 29.1667 34.1667 30.5 34H65.5C65.5 23.2 56.1667 17.1667 51.5 15.5C48.7 9.1 44.6667 6.5 43 6C40.2 6 38.1667 11.3333 37.5 14C25.9 14.8 18 22.6666 15.5 26.5C11.1 25.3 7.00009 26.6666 5.50013 27.5C3.50013 32.7 7.66706 37.6666 10.0005 39.5Z" fill="#C4F5FD"/>
</svg>
