<svg width="182" height="66" viewBox="0 0 182 66" fill="none" xmlns="http://www.w3.org/2000/svg">
<path d="M14.3063 0H6.35873C4.60299 0 3.17969 1.4233 3.17969 3.17904V30.9956C3.17969 32.7514 4.60299 34.1747 6.35873 34.1747H14.3063C16.0621 34.1747 17.4854 32.7514 17.4854 30.9956V5.56332V3.17904C17.4854 1.42331 16.0621 0 14.3063 0Z" fill="#61E5FA"/>
<path d="M49.2751 0H41.3275C39.5717 0 38.1484 1.4233 38.1484 3.17904V30.9956C38.1484 32.7514 39.5717 34.1747 41.3275 34.1747H49.2751C51.0308 34.1747 52.4541 32.7514 52.4541 30.9956V5.56332V3.17904C52.4541 1.42331 51.0308 0 49.2751 0Z" fill="#61E5FA"/>
<path d="M41.3268 4.76855H15.8945V16.69H41.3268V4.76855Z" fill="#61E5FA"/>
<path d="M41.3265 22.2532H14.3047V34.1746H41.3265V22.2532Z" fill="#61E5FA"/>
<path d="M31.7891 59.6069V53.2489C31.7891 51.4931 33.2124 50.0698 34.9681 50.0698H44.5052C46.261 50.0698 47.6843 51.4931 47.6843 53.2489V59.6069C47.6843 61.3627 46.261 62.786 44.5052 62.786H34.9681C33.2124 62.786 31.7891 61.3627 31.7891 59.6069Z" fill="#61E5FA"/>
<path d="M9.53906 59.6069V53.2489C9.53906 51.4931 10.9624 50.0698 12.7181 50.0698H22.2552C24.011 50.0698 25.4343 51.4931 25.4343 53.2489V59.6069C25.4343 61.3627 24.011 62.786 22.2552 62.786H12.7181C10.9624 62.786 9.53906 61.3627 9.53906 59.6069Z" fill="#61E5FA"/>
<path d="M0 49.2751V43.7118C0 41.956 1.42331 40.5327 3.17904 40.5327H54.0437C55.7994 40.5327 57.2227 41.956 57.2227 43.7118V49.2751C57.2227 51.0308 55.7994 52.4541 54.0437 52.4541H3.17904C1.4233 52.4541 0 51.0308 0 49.2751Z" fill="#61E5FA"/>
<path d="M63.582 30.9957V28.6114C63.582 26.8557 65.0053 25.4324 66.7611 25.4324H117.626C119.381 25.4324 120.805 26.8557 120.805 28.6114V30.9957C120.805 32.7514 119.381 34.1747 117.626 34.1747H66.7611C65.0053 34.1747 63.582 32.7514 63.582 30.9957Z" fill="#61E5FA"/>
<path d="M65.1719 4.76856V3.17904C65.1719 1.4233 66.5952 0 68.3509 0H116.037C117.792 0 119.216 1.4233 119.216 3.17904V4.76856C119.216 6.52429 117.792 7.9476 116.037 7.9476H68.3509C66.5952 7.9476 65.1719 6.5243 65.1719 4.76856Z" fill="#61E5FA"/>
<path d="M65.1719 19.0742V17.4847C65.1719 15.729 66.5952 14.3057 68.3509 14.3057H116.037C117.792 14.3057 119.216 15.729 119.216 17.4847V19.0742C119.216 20.83 117.792 22.2533 116.037 22.2533H68.3509C66.5952 22.2533 65.1719 20.83 65.1719 19.0742Z" fill="#61E5FA"/>
<path d="M73.9159 15.1003L73.1211 7.94751H87.4268L88.2215 14.3474L73.9159 15.1003Z" fill="#61E5FA"/>
<path d="M96.1659 6.35814L95.3711 15.8953H109.677L110.472 7.36205L96.1659 6.35814Z" fill="#61E5FA"/>
<path d="M65.1719 42.1222V41.3275C65.1719 39.5717 66.5952 38.1484 68.3509 38.1484H116.037C117.792 38.1484 119.216 39.5717 119.216 41.3275V52.4541C119.216 54.2099 117.792 55.6332 116.037 55.6332H81.4645C80.8061 55.6332 80.2723 56.1669 80.2723 56.8253C80.2723 57.4837 80.806 58.0174 81.4644 58.0174H116.831C118.587 58.0174 120.01 59.4407 120.01 61.1965V62.786C120.01 64.5417 118.587 65.965 116.831 65.965H68.3509C66.5952 65.965 65.1719 64.5417 65.1719 62.786V50.9301C65.1719 49.149 66.635 47.7154 68.4158 47.7518L102.51 48.4476C103.391 48.4655 104.115 47.7561 104.115 46.8746C104.115 46.0057 103.411 45.3013 102.542 45.3013H68.3509C66.5952 45.3013 65.1719 43.878 65.1719 42.1222Z" fill="#61E5FA"/>
<path d="M127.16 10.332V4.76864C127.16 3.0129 128.583 1.5896 130.339 1.5896H157.361C159.117 1.5896 160.54 3.0129 160.54 4.76864V32.5852C160.54 34.341 159.117 35.7643 157.361 35.7643H145.44C143.684 35.7643 142.261 37.1876 142.261 38.9433V43.7119C142.261 45.4676 143.684 46.8909 145.44 46.8909H158.951C160.706 46.8909 162.13 48.3142 162.13 50.07V55.6333C162.13 57.389 160.706 58.8123 158.951 58.8123H130.339C128.583 58.8123 127.16 57.389 127.16 55.6333V27.0219C127.16 25.2662 128.583 23.8429 130.339 23.8429H143.055C144.811 23.8429 146.234 22.4196 146.234 20.6638V16.69C146.234 14.9343 144.811 13.511 143.055 13.511H130.339C128.583 13.511 127.16 12.0877 127.16 10.332Z" fill="#61E5FA"/>
<path d="M166.898 57.2227V3.17904C166.898 1.4233 168.322 0 170.077 0H178.82C180.576 0 181.999 1.4233 181.999 3.17904V57.2227C181.999 58.9784 180.576 60.4017 178.82 60.4017H170.077C168.322 60.4017 166.898 58.9784 166.898 57.2227Z" fill="#61E5FA"/>
</svg>
