<svg width="360" height="71" viewBox="0 0 360 71" fill="none" xmlns="http://www.w3.org/2000/svg">
<rect width="360" height="71" fill="white"/>
<mask id="mask0_173_23703" style="mask-type:alpha" maskUnits="userSpaceOnUse" x="35" y="12" width="24" height="24">
<rect x="35" y="12" width="24" height="24" fill="#D9D9D9"/>
</mask>
<g mask="url(#mask0_173_23703)">
<path d="M46.8752 32C46.9419 32 47.0086 31.9833 47.0752 31.95C47.1419 31.9167 47.1919 31.8833 47.2252 31.85L55.4252 23.65C55.6252 23.45 55.7711 23.225 55.8627 22.975C55.9544 22.725 56.0002 22.475 56.0002 22.225C56.0002 21.9583 55.9544 21.7042 55.8627 21.4625C55.7711 21.2208 55.6252 21.0083 55.4252 20.825L51.1752 16.575C50.9919 16.375 50.7794 16.2292 50.5377 16.1375C50.2961 16.0458 50.0419 16 49.7752 16C49.5252 16 49.2752 16.0458 49.0252 16.1375C48.7752 16.2292 48.5502 16.375 48.3502 16.575L48.0752 16.85L49.9252 18.725C50.1752 18.9583 50.3586 19.225 50.4752 19.525C50.5919 19.825 50.6502 20.1417 50.6502 20.475C50.6502 21.175 50.4127 21.7625 49.9377 22.2375C49.4627 22.7125 48.8752 22.95 48.1752 22.95C47.8419 22.95 47.5211 22.8917 47.2127 22.775C46.9044 22.6583 46.6336 22.4833 46.4002 22.25L44.5252 20.4L40.1502 24.775C40.1002 24.825 40.0627 24.8792 40.0377 24.9375C40.0127 24.9958 40.0002 25.0583 40.0002 25.125C40.0002 25.2583 40.0502 25.3792 40.1502 25.4875C40.2502 25.5958 40.3669 25.65 40.5002 25.65C40.5669 25.65 40.6336 25.6333 40.7002 25.6C40.7669 25.5667 40.8169 25.5333 40.8502 25.5L44.2502 22.1L45.6502 23.5L42.2752 26.9C42.2252 26.95 42.1877 27.0042 42.1627 27.0625C42.1377 27.1208 42.1252 27.1833 42.1252 27.25C42.1252 27.3833 42.1752 27.5 42.2752 27.6C42.3752 27.7 42.4919 27.75 42.6252 27.75C42.6919 27.75 42.7586 27.7333 42.8252 27.7C42.8919 27.6667 42.9419 27.6333 42.9752 27.6L46.3752 24.225L47.7752 25.625L44.4002 29.025C44.3502 29.0583 44.3127 29.1083 44.2877 29.175C44.2627 29.2417 44.2502 29.3083 44.2502 29.375C44.2502 29.5083 44.3002 29.625 44.4002 29.725C44.5002 29.825 44.6169 29.875 44.7502 29.875C44.8169 29.875 44.8794 29.8625 44.9377 29.8375C44.9961 29.8125 45.0502 29.775 45.1002 29.725L48.5002 26.35L49.9002 27.75L46.5002 31.15C46.4502 31.2 46.4127 31.2542 46.3877 31.3125C46.3627 31.3708 46.3502 31.4333 46.3502 31.5C46.3502 31.6333 46.4044 31.75 46.5127 31.85C46.6211 31.95 46.7419 32 46.8752 32ZM46.8502 34C46.2336 34 45.6877 33.7958 45.2127 33.3875C44.7377 32.9792 44.4586 32.4667 44.3752 31.85C43.8086 31.7667 43.3336 31.5333 42.9502 31.15C42.5669 30.7667 42.3336 30.2917 42.2502 29.725C41.6836 29.6417 41.2127 29.4042 40.8377 29.0125C40.4627 28.6208 40.2336 28.15 40.1502 27.6C39.5169 27.5167 39.0002 27.2417 38.6002 26.775C38.2002 26.3083 38.0002 25.7583 38.0002 25.125C38.0002 24.7917 38.0627 24.4708 38.1877 24.1625C38.3127 23.8542 38.4919 23.5833 38.7252 23.35L44.5252 17.575L47.8002 20.85C47.8336 20.9 47.8836 20.9375 47.9502 20.9625C48.0169 20.9875 48.0836 21 48.1502 21C48.3002 21 48.4252 20.9542 48.5252 20.8625C48.6252 20.7708 48.6752 20.65 48.6752 20.5C48.6752 20.4333 48.6627 20.3667 48.6377 20.3C48.6127 20.2333 48.5752 20.1833 48.5252 20.15L44.9502 16.575C44.7669 16.375 44.5544 16.2292 44.3127 16.1375C44.0711 16.0458 43.8169 16 43.5502 16C43.3002 16 43.0502 16.0458 42.8002 16.1375C42.5502 16.2292 42.3252 16.375 42.1252 16.575L38.6002 20.125C38.4502 20.275 38.3252 20.45 38.2252 20.65C38.1252 20.85 38.0586 21.05 38.0252 21.25C37.9919 21.45 37.9919 21.6542 38.0252 21.8625C38.0586 22.0708 38.1252 22.2667 38.2252 22.45L36.7752 23.9C36.4919 23.5167 36.2836 23.0958 36.1502 22.6375C36.0169 22.1792 35.9669 21.7167 36.0002 21.25C36.0336 20.7833 36.1502 20.3292 36.3502 19.8875C36.5502 19.4458 36.8252 19.05 37.1752 18.7L40.7002 15.175C41.1002 14.7917 41.5461 14.5 42.0377 14.3C42.5294 14.1 43.0336 14 43.5502 14C44.0669 14 44.5711 14.1 45.0627 14.3C45.5544 14.5 45.9919 14.7917 46.3752 15.175L46.6502 15.45L46.9252 15.175C47.3252 14.7917 47.7711 14.5 48.2627 14.3C48.7544 14.1 49.2586 14 49.7752 14C50.2919 14 50.7961 14.1 51.2877 14.3C51.7794 14.5 52.2169 14.7917 52.6002 15.175L56.8252 19.4C57.2086 19.7833 57.5002 20.225 57.7002 20.725C57.9002 21.225 58.0002 21.7333 58.0002 22.25C58.0002 22.7667 57.9002 23.2708 57.7002 23.7625C57.5002 24.2542 57.2086 24.6917 56.8252 25.075L48.6252 33.25C48.3919 33.4833 48.1211 33.6667 47.8127 33.8C47.5044 33.9333 47.1836 34 46.8502 34Z" fill="#2E2E33"/>
</g>
<path d="M44.8169 47.076H45.7649V57.936H44.8169V47.076ZM40.8569 50.976H42.9449V51.792H40.8569V50.976ZM42.6449 47.328H43.5809V57.372H42.6449V47.328ZM38.7809 48.768H39.5489V50.148C39.5489 50.74 39.4929 51.32 39.3809 51.888C39.2689 52.448 39.1049 52.976 38.8889 53.472C38.6729 53.96 38.4089 54.404 38.0969 54.804C37.7849 55.196 37.4329 55.516 37.0409 55.764L36.4289 55.02C36.9329 54.716 37.3569 54.308 37.7009 53.796C38.0529 53.284 38.3209 52.712 38.5049 52.08C38.6889 51.448 38.7809 50.804 38.7809 50.148V48.768ZM38.9849 48.768H39.7409V50.148C39.7409 50.772 39.8289 51.384 40.0049 51.984C40.1889 52.584 40.4489 53.128 40.7849 53.616C41.1289 54.096 41.5489 54.48 42.0449 54.768L41.4449 55.512C40.9169 55.184 40.4689 54.748 40.1009 54.204C39.7409 53.652 39.4649 53.028 39.2729 52.332C39.0809 51.628 38.9849 50.9 38.9849 50.148V48.768ZM36.7289 48.348H41.6849V49.164H36.7289V48.348ZM50.144 54.528H51.14V57.948H50.144V54.528ZM53.876 54.528H54.872V57.948H53.876V54.528ZM48.116 48.276H56.84V49.08H48.116V48.276ZM47.6 54.024H57.44V54.84H47.6V54.024ZM52.496 49.704C53.6 49.704 54.464 49.86 55.088 50.172C55.712 50.476 56.024 50.916 56.024 51.492C56.024 52.06 55.712 52.504 55.088 52.824C54.464 53.136 53.6 53.292 52.496 53.292C51.392 53.292 50.528 53.136 49.904 52.824C49.28 52.504 48.968 52.06 48.968 51.492C48.968 50.916 49.28 50.476 49.904 50.172C50.528 49.86 51.392 49.704 52.496 49.704ZM52.496 50.46C51.704 50.46 51.088 50.548 50.648 50.724C50.216 50.9 50 51.156 50 51.492C50 51.82 50.216 52.076 50.648 52.26C51.088 52.436 51.704 52.524 52.496 52.524C53.288 52.524 53.9 52.436 54.332 52.26C54.772 52.076 54.992 51.82 54.992 51.492C54.992 51.156 54.772 50.9 54.332 50.724C53.9 50.548 53.288 50.46 52.496 50.46ZM52.004 47.016H52.988V48.852H52.004V47.016Z" fill="#2E2E33"/>
<mask id="mask1_173_23703" style="mask-type:alpha" maskUnits="userSpaceOnUse" x="120" y="12" width="24" height="24">
<rect x="120" y="12" width="24" height="24" fill="#D9D9D9"/>
</mask>
<g mask="url(#mask1_173_23703)">
<path d="M132 32.9999L130.55 31.6999C128.867 30.1832 127.475 28.8749 126.375 27.7749C125.275 26.6749 124.4 25.6874 123.75 24.8124C123.1 23.9374 122.646 23.1332 122.388 22.3999C122.129 21.6666 122 20.9166 122 20.1499C122 18.5832 122.525 17.2749 123.575 16.2249C124.625 15.1749 125.933 14.6499 127.5 14.6499C128.367 14.6499 129.192 14.8332 129.975 15.1999C130.758 15.5666 131.433 16.0832 132 16.7499C132.567 16.0832 133.242 15.5666 134.025 15.1999C134.808 14.8332 135.633 14.6499 136.5 14.6499C138.067 14.6499 139.375 15.1749 140.425 16.2249C141.475 17.2749 142 18.5832 142 20.1499C142 20.9166 141.871 21.6666 141.613 22.3999C141.354 23.1332 140.9 23.9374 140.25 24.8124C139.6 25.6874 138.725 26.6749 137.625 27.7749C136.525 28.8749 135.133 30.1832 133.45 31.6999L132 32.9999ZM132 30.2999C133.6 28.8666 134.917 27.6374 135.95 26.6124C136.983 25.5874 137.8 24.6957 138.4 23.9374C139 23.1791 139.417 22.5041 139.65 21.9124C139.883 21.3207 140 20.7332 140 20.1499C140 19.1499 139.667 18.3166 139 17.6499C138.333 16.9832 137.5 16.6499 136.5 16.6499C135.717 16.6499 134.992 16.8707 134.325 17.3124C133.658 17.7541 133.2 18.3166 132.95 18.9999H131.05C130.8 18.3166 130.342 17.7541 129.675 17.3124C129.008 16.8707 128.283 16.6499 127.5 16.6499C126.5 16.6499 125.667 16.9832 125 17.6499C124.333 18.3166 124 19.1499 124 20.1499C124 20.7332 124.117 21.3207 124.35 21.9124C124.583 22.5041 125 23.1791 125.6 23.9374C126.2 24.6957 127.017 25.5874 128.05 26.6124C129.083 27.6374 130.4 28.8666 132 30.2999Z" fill="#2E2E33"/>
</g>
<path d="M128.736 48.156H129.468V49.104C129.468 49.44 129.432 49.796 129.36 50.172C129.288 50.54 129.176 50.9 129.024 51.252C128.872 51.596 128.672 51.916 128.424 52.212C128.184 52.508 127.888 52.752 127.536 52.944L127.008 52.212C127.32 52.052 127.584 51.848 127.8 51.6C128.016 51.352 128.192 51.088 128.328 50.808C128.464 50.52 128.564 50.232 128.628 49.944C128.7 49.648 128.736 49.368 128.736 49.104V48.156ZM128.964 48.156H129.672V49.104C129.672 49.336 129.696 49.596 129.744 49.884C129.792 50.172 129.872 50.468 129.984 50.772C130.096 51.068 130.252 51.348 130.452 51.612C130.652 51.876 130.904 52.104 131.208 52.296L130.752 53.052C130.392 52.836 130.096 52.568 129.864 52.248C129.632 51.928 129.452 51.584 129.324 51.216C129.196 50.848 129.104 50.48 129.048 50.112C128.992 49.744 128.964 49.408 128.964 49.104V48.156ZM131.82 48.156H132.54V49.104C132.54 49.432 132.512 49.78 132.456 50.148C132.4 50.516 132.308 50.884 132.18 51.252C132.052 51.62 131.868 51.96 131.628 52.272C131.396 52.584 131.104 52.844 130.752 53.052L130.296 52.296C130.6 52.112 130.848 51.892 131.04 51.636C131.24 51.372 131.396 51.092 131.508 50.796C131.62 50.5 131.7 50.208 131.748 49.92C131.796 49.624 131.82 49.352 131.82 49.104V48.156ZM132.048 48.156H132.78V49.104C132.78 49.464 132.836 49.844 132.948 50.244C133.068 50.636 133.252 51.008 133.5 51.36C133.756 51.712 134.088 51.996 134.496 52.212L133.98 52.944C133.508 52.688 133.128 52.348 132.84 51.924C132.56 51.5 132.356 51.04 132.228 50.544C132.108 50.048 132.048 49.568 132.048 49.104V48.156ZM127.38 47.832H130.488V48.648H127.38V47.832ZM131.016 47.832H134.076V48.648H131.016V47.832ZM135.096 47.076H136.092V53.436H135.096V47.076ZM128.904 54.036H136.092V57.792H128.904V54.036ZM135.12 54.828H129.876V56.976H135.12V54.828Z" fill="#2E2E33"/>
<mask id="mask2_173_23703" style="mask-type:alpha" maskUnits="userSpaceOnUse" x="209" y="12" width="25" height="24">
<rect x="209.5" y="12" width="24" height="24" fill="#D9D9D9"/>
</mask>
<g mask="url(#mask2_173_23703)">
<path d="M218.5 21V19H227.5V21H218.5ZM218.5 24V22H227.5V24H218.5ZM221.5 34H215.5C214.667 34 213.958 33.7083 213.375 33.125C212.792 32.5417 212.5 31.8333 212.5 31V28H215.5V14H230.5V23.025C230.167 22.9917 229.829 23.0042 229.488 23.0625C229.146 23.1208 228.817 23.225 228.5 23.375V16H217.5V28H223.5L221.5 30H214.5V31C214.5 31.2833 214.596 31.5208 214.788 31.7125C214.979 31.9042 215.217 32 215.5 32H221.5V34ZM223.5 34V30.925L229.025 25.425C229.175 25.275 229.342 25.1667 229.525 25.1C229.708 25.0333 229.892 25 230.075 25C230.275 25 230.467 25.0375 230.65 25.1125C230.833 25.1875 231 25.3 231.15 25.45L232.075 26.375C232.208 26.525 232.312 26.6917 232.388 26.875C232.463 27.0583 232.5 27.2417 232.5 27.425C232.5 27.6083 232.467 27.7958 232.4 27.9875C232.333 28.1792 232.225 28.35 232.075 28.5L226.575 34H223.5ZM225 32.5H225.95L228.975 29.45L228.525 28.975L228.05 28.525L225 31.55V32.5ZM228.525 28.975L228.05 28.525L228.975 29.45L228.525 28.975Z" fill="#2E2E33"/>
</g>
<path d="M208.086 51.408H210.09V52.248H208.086V51.408ZM207.354 47.076H208.362V57.936H207.354V47.076ZM200.442 48.144H201.438V54.864H200.442V48.144ZM200.442 54.348H201.306C202.914 54.348 204.558 54.24 206.346 53.868L206.466 54.696C204.618 55.08 202.95 55.188 201.306 55.188H200.442V54.348ZM214.577 47.868C216.269 47.868 217.481 48.912 217.481 50.424C217.481 51.948 216.269 52.992 214.577 52.992C212.885 52.992 211.661 51.948 211.661 50.424C211.661 48.912 212.885 47.868 214.577 47.868ZM214.577 48.732C213.449 48.732 212.633 49.416 212.633 50.424C212.633 51.432 213.449 52.128 214.577 52.128C215.693 52.128 216.509 51.432 216.509 50.424C216.509 49.416 215.693 48.732 214.577 48.732ZM218.897 47.076H219.893V57.948H218.897V47.076ZM211.253 55.572L211.109 54.744C213.089 54.744 215.825 54.732 218.189 54.36L218.273 55.092C215.837 55.56 213.185 55.572 211.253 55.572ZM229.996 47.076H230.992V57.948H229.996V47.076ZM222.724 54.504H223.624C225.436 54.504 227.056 54.432 228.976 54.12L229.084 54.936C227.116 55.26 225.484 55.332 223.624 55.332H222.724V54.504ZM222.7 48.096H227.716V51.972H223.72V54.816H222.724V51.156H226.708V48.912H222.7V48.096ZM235.599 53.556H236.595V57.936H235.599V53.556ZM239.475 53.556H240.483V57.936H239.475V53.556ZM233.127 53.424H242.967V54.24H233.127V53.424ZM234.363 47.508H235.359V48.96H240.723V47.508H241.707V52.152H234.363V47.508ZM235.359 49.776V51.324H240.723V49.776H235.359Z" fill="#2E2E33"/>
<mask id="mask3_173_23703" style="mask-type:alpha" maskUnits="userSpaceOnUse" x="296" y="12" width="24" height="24">
<rect x="296" y="12" width="24" height="24" fill="#D9D9D9"/>
</mask>
<g mask="url(#mask3_173_23703)">
<path d="M300 34V23H298V17H303.2C303.117 16.85 303.062 16.6917 303.037 16.525C303.012 16.3583 303 16.1833 303 16C303 15.1667 303.292 14.4583 303.875 13.875C304.458 13.2917 305.167 13 306 13C306.383 13 306.742 13.0708 307.075 13.2125C307.408 13.3542 307.717 13.55 308 13.8C308.283 13.5333 308.592 13.3333 308.925 13.2C309.258 13.0667 309.617 13 310 13C310.833 13 311.542 13.2917 312.125 13.875C312.708 14.4583 313 15.1667 313 16C313 16.1833 312.983 16.3542 312.95 16.5125C312.917 16.6708 312.867 16.8333 312.8 17H318V23H316V34H300ZM310 15C309.717 15 309.479 15.0958 309.288 15.2875C309.096 15.4792 309 15.7167 309 16C309 16.2833 309.096 16.5208 309.288 16.7125C309.479 16.9042 309.717 17 310 17C310.283 17 310.521 16.9042 310.713 16.7125C310.904 16.5208 311 16.2833 311 16C311 15.7167 310.904 15.4792 310.713 15.2875C310.521 15.0958 310.283 15 310 15ZM305 16C305 16.2833 305.096 16.5208 305.287 16.7125C305.479 16.9042 305.717 17 306 17C306.283 17 306.521 16.9042 306.713 16.7125C306.904 16.5208 307 16.2833 307 16C307 15.7167 306.904 15.4792 306.713 15.2875C306.521 15.0958 306.283 15 306 15C305.717 15 305.479 15.0958 305.287 15.2875C305.096 15.4792 305 15.7167 305 16ZM300 19V21H307V19H300ZM307 32V23H302V32H307ZM309 32H314V23H309V32ZM316 21V19H309V21H316Z" fill="#2E2E33"/>
</g>
<path d="M297.597 49.644H300.333V50.472H297.597V49.644ZM294.753 47.748H295.557V49.08C295.557 51.18 294.381 52.932 292.569 53.664L292.053 52.872C293.661 52.272 294.753 50.736 294.753 49.08V47.748ZM294.945 47.748H295.749V49.116C295.749 50.628 296.805 52.056 298.377 52.632L297.837 53.4C296.109 52.728 294.945 51.048 294.945 49.116V47.748ZM299.961 47.1H300.957V55.212H299.961V47.1ZM293.985 56.88H301.221V57.696H293.985V56.88ZM293.985 54.312H294.981V57.264H293.985V54.312ZM307.472 52.212H308.456V53.88H307.472V52.212ZM303.068 51.66H312.872V52.464H303.068V51.66ZM304.34 47.448H311.6V50.748H304.34V47.448ZM310.628 48.24H305.324V49.956H310.628V48.24ZM304.256 53.52H311.624V55.956H305.264V57.276H304.28V55.236H310.64V54.288H304.256V53.52ZM304.28 57.036H311.948V57.816H304.28V57.036ZM321.536 47.088H322.532V53.616H321.536V47.088ZM322.256 49.968H324.14V50.796H322.256V49.968ZM315.716 54.228H322.532V57.792H315.716V54.228ZM321.56 55.032H316.688V56.988H321.56V55.032ZM314.144 48.228H320.552V49.044H314.144V48.228ZM317.348 49.572C318.896 49.572 319.94 50.34 319.94 51.516C319.94 52.692 318.896 53.436 317.348 53.436C315.788 53.436 314.744 52.692 314.744 51.516C314.744 50.34 315.788 49.572 317.348 49.572ZM317.348 50.34C316.352 50.34 315.692 50.796 315.692 51.516C315.692 52.224 316.352 52.68 317.348 52.68C318.32 52.68 318.992 52.224 318.992 51.516C318.992 50.796 318.32 50.34 317.348 50.34ZM316.844 46.992H317.84V48.648H316.844V46.992Z" fill="#2E2E33"/>
<line x1="92.35" y1="21" x2="92.35" y2="50" stroke="#C6C7CD" stroke-width="0.7"/>
<line x1="177.35" y1="21" x2="177.35" y2="50" stroke="#C6C7CD" stroke-width="0.7"/>
<line x1="263.35" y1="21" x2="263.35" y2="50" stroke="#C6C7CD" stroke-width="0.7"/>
</svg>
