<svg width="37" height="40" viewBox="0 0 37 40" fill="none" xmlns="http://www.w3.org/2000/svg">
<mask id="mask0_323_39494" style="mask-type:alpha" maskUnits="userSpaceOnUse" x="6" y="0" width="25" height="24">
<rect x="6.5" width="24" height="24" fill="#D9D9D9"/>
</mask>
<g mask="url(#mask0_323_39494)">
<path d="M13.5 22C12.95 22 12.4792 21.8042 12.0875 21.4125C11.6958 21.0208 11.5 20.55 11.5 20C11.5 19.45 11.6958 18.9792 12.0875 18.5875C12.4792 18.1958 12.95 18 13.5 18C14.05 18 14.5208 18.1958 14.9125 18.5875C15.3042 18.9792 15.5 19.45 15.5 20C15.5 20.55 15.3042 21.0208 14.9125 21.4125C14.5208 21.8042 14.05 22 13.5 22ZM23.5 22C22.95 22 22.4792 21.8042 22.0875 21.4125C21.6958 21.0208 21.5 20.55 21.5 20C21.5 19.45 21.6958 18.9792 22.0875 18.5875C22.4792 18.1958 22.95 18 23.5 18C24.05 18 24.5208 18.1958 24.9125 18.5875C25.3042 18.9792 25.5 19.45 25.5 20C25.5 20.55 25.3042 21.0208 24.9125 21.4125C24.5208 21.8042 24.05 22 23.5 22ZM12.65 6L15.05 11H22.05L24.8 6H12.65ZM11.7 4H26.45C26.8333 4 27.125 4.17083 27.325 4.5125C27.525 4.85417 27.5333 5.2 27.35 5.55L23.8 11.95C23.6167 12.2833 23.3708 12.5417 23.0625 12.725C22.7542 12.9083 22.4167 13 22.05 13H14.6L13.5 15H25.5V17H13.5C12.75 17 12.1833 16.6708 11.8 16.0125C11.4167 15.3542 11.4 14.7 11.75 14.05L13.1 11.6L9.5 4H7.5V2H10.75L11.7 4Z" fill="#ABACB5"/>
</g>
<path d="M2.83156 30.7H3.51156V31.43C3.51156 31.99 3.4049 32.5067 3.19156 32.98C2.9849 33.4533 2.69156 33.8667 2.31156 34.22C1.93823 34.5733 1.4949 34.8433 0.981563 35.03L0.561563 34.37C1.0149 34.21 1.41156 33.9833 1.75156 33.69C2.09156 33.39 2.3549 33.0467 2.54156 32.66C2.7349 32.2733 2.83156 31.8633 2.83156 31.43V30.7ZM2.98156 30.7H3.66156V31.43C3.66156 31.8233 3.75156 32.1967 3.93156 32.55C4.11156 32.9033 4.3649 33.2133 4.69156 33.48C5.01823 33.7467 5.40156 33.9567 5.84156 34.11L5.45156 34.76C4.9449 34.5867 4.50823 34.3367 4.14156 34.01C3.7749 33.6833 3.48823 33.3 3.28156 32.86C3.08156 32.4133 2.98156 31.9367 2.98156 31.43V30.7ZM0.811563 30.4H5.65156V31.08H0.811563V30.4ZM6.79156 29.73H7.62156V35.18H6.79156V29.73ZM7.39156 32.03H8.95156V32.72H7.39156V32.03ZM4.74156 35.43C5.3549 35.43 5.88156 35.4967 6.32156 35.63C6.76823 35.7567 7.11156 35.9433 7.35156 36.19C7.59156 36.4367 7.71156 36.7367 7.71156 37.09C7.71156 37.4433 7.59156 37.7433 7.35156 37.99C7.11156 38.2367 6.76823 38.4267 6.32156 38.56C5.88156 38.6933 5.3549 38.76 4.74156 38.76C4.12823 38.76 3.59823 38.6933 3.15156 38.56C2.7049 38.4267 2.36156 38.2367 2.12156 37.99C1.88156 37.7433 1.76156 37.4433 1.76156 37.09C1.76156 36.7367 1.88156 36.4367 2.12156 36.19C2.36156 35.9433 2.7049 35.7567 3.15156 35.63C3.59823 35.4967 4.12823 35.43 4.74156 35.43ZM4.74156 36.09C4.2949 36.09 3.90823 36.13 3.58156 36.21C3.26156 36.29 3.0149 36.4033 2.84156 36.55C2.66823 36.6967 2.58156 36.8767 2.58156 37.09C2.58156 37.3033 2.66823 37.4867 2.84156 37.64C3.0149 37.7867 3.26156 37.9 3.58156 37.98C3.90823 38.06 4.2949 38.1 4.74156 38.1C5.18823 38.1 5.57156 38.06 5.89156 37.98C6.21156 37.9 6.45823 37.7867 6.63156 37.64C6.8049 37.4867 6.89156 37.3033 6.89156 37.09C6.89156 36.8767 6.8049 36.6967 6.63156 36.55C6.45823 36.4033 6.21156 36.29 5.89156 36.21C5.57156 36.13 5.18823 36.09 4.74156 36.09ZM15.9208 29.73H16.7508V38.78H15.9208V29.73ZM16.5608 33.29H18.2308V34H16.5608V33.29ZM10.1608 30.5H10.9808V32.88H13.5508V30.5H14.3708V36.61H10.1608V30.5ZM10.9808 33.54V35.92H13.5508V33.54H10.9808ZM20.02 30.32H25.68V30.99H20.02V30.32ZM19 34.2H27.17V34.89H19V34.2ZM22.65 34.66H23.48V38.79H22.65V34.66ZM25.28 30.32H26.1V31.11C26.1 31.4233 26.0933 31.7533 26.08 32.1C26.0733 32.4467 26.0467 32.83 26 33.25C25.9533 33.6633 25.8733 34.1233 25.76 34.63L24.93 34.52C25.11 33.7933 25.2133 33.1567 25.24 32.61C25.2667 32.0633 25.28 31.5633 25.28 31.11V30.32ZM34.7792 29.73H35.5992V38.78H34.7792V29.73ZM28.7692 30.62H29.5892V36.22H28.7692V30.62ZM28.7692 35.73H29.5092C30.2026 35.73 30.9059 35.7 31.6192 35.64C32.3392 35.5733 33.0792 35.4633 33.8392 35.31L33.9492 36.01C33.1626 36.1767 32.4059 36.2933 31.6792 36.36C30.9526 36.42 30.2292 36.45 29.5092 36.45H28.7692V35.73Z" fill="#ABACB5"/>
</svg>
