<svg width="27" height="40" viewBox="0 0 27 40" fill="none" xmlns="http://www.w3.org/2000/svg">
<mask id="mask0_323_39542" style="mask-type:alpha" maskUnits="userSpaceOnUse" x="1" y="0" width="25" height="24">
<rect x="1.5" width="24" height="24" fill="#D9D9D9"/>
</mask>
<g mask="url(#mask0_323_39542)">
<path d="M6.5 22C5.95 22 5.47917 21.8042 5.0875 21.4125C4.69583 21.0208 4.5 20.55 4.5 20V8C4.5 7.45 4.69583 6.97917 5.0875 6.5875C5.47917 6.19583 5.95 6 6.5 6H8.5C8.5 4.61667 8.9875 3.4375 9.9625 2.4625C10.9375 1.4875 12.1167 1 13.5 1C14.8833 1 16.0625 1.4875 17.0375 2.4625C18.0125 3.4375 18.5 4.61667 18.5 6H20.5C21.05 6 21.5208 6.19583 21.9125 6.5875C22.3042 6.97917 22.5 7.45 22.5 8V20C22.5 20.55 22.3042 21.0208 21.9125 21.4125C21.5208 21.8042 21.05 22 20.5 22H6.5ZM6.5 20H20.5V8H6.5V20ZM13.5 14C14.8833 14 16.0625 13.5125 17.0375 12.5375C18.0125 11.5625 18.5 10.3833 18.5 9H16.5C16.5 9.83333 16.2083 10.5417 15.625 11.125C15.0417 11.7083 14.3333 12 13.5 12C12.6667 12 11.9583 11.7083 11.375 11.125C10.7917 10.5417 10.5 9.83333 10.5 9H8.5C8.5 10.3833 8.9875 11.5625 9.9625 12.5375C10.9375 13.5125 12.1167 14 13.5 14ZM10.5 6H16.5C16.5 5.16667 16.2083 4.45833 15.625 3.875C15.0417 3.29167 14.3333 3 13.5 3C12.6667 3 11.9583 3.29167 11.375 3.875C10.7917 4.45833 10.5 5.16667 10.5 6Z" fill="#ABACB5"/>
</g>
<path d="M3.04879 38.13C2.52879 38.13 2.04879 38.0333 1.60879 37.84C1.17546 37.6467 0.802122 37.3833 0.488789 37.05L1.03879 36.41C1.29879 36.6833 1.60546 36.9033 1.95879 37.07C2.31212 37.2367 2.67879 37.32 3.05879 37.32C3.54546 37.32 3.92212 37.21 4.18879 36.99C4.46212 36.77 4.59879 36.4833 4.59879 36.13C4.59879 35.87 4.54212 35.6633 4.42879 35.51C4.32212 35.3567 4.17546 35.23 3.98879 35.13C3.80879 35.0233 3.60212 34.92 3.36879 34.82L2.31879 34.36C2.09212 34.26 1.86212 34.1333 1.62879 33.98C1.40212 33.8267 1.21212 33.6267 1.05879 33.38C0.905456 33.1333 0.828789 32.8333 0.828789 32.48C0.828789 32.1 0.928789 31.7667 1.12879 31.48C1.32879 31.1867 1.60212 30.9567 1.94879 30.79C2.29546 30.6233 2.69212 30.54 3.13879 30.54C3.57879 30.54 3.98212 30.6233 4.34879 30.79C4.72212 30.9567 5.03546 31.1733 5.28879 31.44L4.80879 32.03C4.58212 31.8233 4.33212 31.66 4.05879 31.54C3.79212 31.4133 3.48546 31.35 3.13879 31.35C2.72546 31.35 2.39212 31.4467 2.13879 31.64C1.89212 31.8267 1.76879 32.0833 1.76879 32.41C1.76879 32.65 1.82879 32.8467 1.94879 33C2.07546 33.1533 2.23212 33.2767 2.41879 33.37C2.60546 33.4633 2.79546 33.5533 2.98879 33.64L4.02879 34.09C4.30879 34.21 4.56212 34.3533 4.78879 34.52C5.02212 34.6867 5.20546 34.8933 5.33879 35.14C5.47212 35.3867 5.53879 35.69 5.53879 36.05C5.53879 36.4367 5.43879 36.79 5.23879 37.11C5.03879 37.4233 4.75212 37.6733 4.37879 37.86C4.00546 38.04 3.56212 38.13 3.04879 38.13ZM6.97582 38V30.67H7.89582V33.74H11.3158V30.67H12.2458V38H11.3158V34.54H7.89582V38H6.97582ZM16.9512 38.13C16.3379 38.13 15.7945 37.9767 15.3212 37.67C14.8545 37.3567 14.4879 36.9133 14.2212 36.34C13.9545 35.7667 13.8212 35.09 13.8212 34.31C13.8212 33.5233 13.9545 32.85 14.2212 32.29C14.4879 31.7233 14.8545 31.29 15.3212 30.99C15.7945 30.69 16.3379 30.54 16.9512 30.54C17.5645 30.54 18.1045 30.6933 18.5712 31C19.0445 31.3 19.4145 31.73 19.6812 32.29C19.9479 32.85 20.0812 33.5233 20.0812 34.31C20.0812 35.09 19.9479 35.7667 19.6812 36.34C19.4145 36.9133 19.0445 37.3567 18.5712 37.67C18.1045 37.9767 17.5645 38.13 16.9512 38.13ZM16.9512 37.32C17.3912 37.32 17.7745 37.1967 18.1012 36.95C18.4279 36.7033 18.6812 36.3533 18.8612 35.9C19.0412 35.4467 19.1312 34.9167 19.1312 34.31C19.1312 33.6967 19.0412 33.17 18.8612 32.73C18.6812 32.2833 18.4279 31.9433 18.1012 31.71C17.7745 31.47 17.3912 31.35 16.9512 31.35C16.5179 31.35 16.1345 31.47 15.8012 31.71C15.4745 31.9433 15.2212 32.2833 15.0412 32.73C14.8612 33.17 14.7712 33.6967 14.7712 34.31C14.7712 34.9167 14.8612 35.4467 15.0412 35.9C15.2212 36.3533 15.4745 36.7033 15.8012 36.95C16.1345 37.1967 16.5179 37.32 16.9512 37.32ZM21.6731 38V30.67H23.7631C24.3098 30.67 24.7898 30.74 25.2031 30.88C25.6164 31.0133 25.9364 31.2367 26.1631 31.55C26.3898 31.8633 26.5031 32.2867 26.5031 32.82C26.5031 33.3333 26.3898 33.7567 26.1631 34.09C25.9364 34.4233 25.6198 34.6733 25.2131 34.84C24.8064 35 24.3364 35.08 23.8031 35.08H22.5931V38H21.6731ZM22.5931 34.33H23.6831C24.3231 34.33 24.7998 34.21 25.1131 33.97C25.4264 33.73 25.5831 33.3467 25.5831 32.82C25.5831 32.2867 25.4198 31.92 25.0931 31.72C24.7731 31.52 24.2898 31.42 23.6431 31.42H22.5931V34.33Z" fill="#ABACB5"/>
</svg>
