<svg width="37" height="40" viewBox="0 0 37 40" fill="none" xmlns="http://www.w3.org/2000/svg">
<mask id="mask0_323_39510" style="mask-type:alpha" maskUnits="userSpaceOnUse" x="6" y="0" width="25" height="24">
<rect x="6.5" width="24" height="24" fill="#D9D9D9"/>
</mask>
<g mask="url(#mask0_323_39510)">
<path d="M17.5 21V19H25.5V11.9C25.5 9.95 24.8208 8.29583 23.4625 6.9375C22.1042 5.57917 20.45 4.9 18.5 4.9C16.55 4.9 14.8958 5.57917 13.5375 6.9375C12.1792 8.29583 11.5 9.95 11.5 11.9V18H10.5C9.95 18 9.47917 17.8042 9.0875 17.4125C8.69583 17.0208 8.5 16.55 8.5 16V14C8.5 13.65 8.5875 13.3208 8.7625 13.0125C8.9375 12.7042 9.18333 12.4583 9.5 12.275L9.575 10.95C9.70833 9.81667 10.0375 8.76667 10.5625 7.8C11.0875 6.83333 11.7458 5.99167 12.5375 5.275C13.3292 4.55833 14.2375 4 15.2625 3.6C16.2875 3.2 17.3667 3 18.5 3C19.6333 3 20.7083 3.2 21.725 3.6C22.7417 4 23.65 4.55417 24.45 5.2625C25.25 5.97083 25.9083 6.80833 26.425 7.775C26.9417 8.74167 27.275 9.79167 27.425 10.925L27.5 12.225C27.8167 12.375 28.0625 12.6 28.2375 12.9C28.4125 13.2 28.5 13.5167 28.5 13.85V16.15C28.5 16.4833 28.4125 16.8 28.2375 17.1C28.0625 17.4 27.8167 17.625 27.5 17.775V19C27.5 19.55 27.3042 20.0208 26.9125 20.4125C26.5208 20.8042 26.05 21 25.5 21H17.5ZM15.5 14C15.2167 14 14.9792 13.9042 14.7875 13.7125C14.5958 13.5208 14.5 13.2833 14.5 13C14.5 12.7167 14.5958 12.4792 14.7875 12.2875C14.9792 12.0958 15.2167 12 15.5 12C15.7833 12 16.0208 12.0958 16.2125 12.2875C16.4042 12.4792 16.5 12.7167 16.5 13C16.5 13.2833 16.4042 13.5208 16.2125 13.7125C16.0208 13.9042 15.7833 14 15.5 14ZM21.5 14C21.2167 14 20.9792 13.9042 20.7875 13.7125C20.5958 13.5208 20.5 13.2833 20.5 13C20.5 12.7167 20.5958 12.4792 20.7875 12.2875C20.9792 12.0958 21.2167 12 21.5 12C21.7833 12 22.0208 12.0958 22.2125 12.2875C22.4042 12.4792 22.5 12.7167 22.5 13C22.5 13.2833 22.4042 13.5208 22.2125 13.7125C22.0208 13.9042 21.7833 14 21.5 14ZM12.525 12.45C12.4083 10.6833 12.9417 9.16667 14.125 7.9C15.3083 6.63333 16.7833 6 18.55 6C20.0333 6 21.3375 6.47083 22.4625 7.4125C23.5875 8.35417 24.2667 9.55833 24.5 11.025C22.9833 11.0083 21.5875 10.6 20.3125 9.8C19.0375 9 18.0583 7.91667 17.375 6.55C17.1083 7.88333 16.5458 9.07083 15.6875 10.1125C14.8292 11.1542 13.775 11.9333 12.525 12.45Z" fill="#ABACB5"/>
</g>
<path d="M1.47156 30.64H7.29156V31.32H1.47156V30.64ZM0.601563 36.82H8.77156V37.51H0.601563V36.82ZM3.78156 33.59H4.60156V37.17H3.78156V33.59ZM6.97156 30.64H7.80156V31.53C7.80156 31.9033 7.7949 32.2967 7.78156 32.71C7.7749 33.1233 7.74823 33.5767 7.70156 34.07C7.66156 34.5633 7.5849 35.1133 7.47156 35.72L6.63156 35.62C6.8049 34.7533 6.9049 33.9933 6.93156 33.34C6.95823 32.68 6.97156 32.0767 6.97156 31.53V30.64ZM16.6308 29.74H17.4208V35.06H16.6308V29.74ZM15.1908 32H16.9008V32.69H15.1908V32ZM14.6508 29.91H15.4408V35.01H14.6508V29.91ZM11.3508 35.49H17.4208V38.78H16.6008V36.17H11.3508V35.49ZM12.9008 30.4H13.7308C13.7308 31.12 13.5974 31.78 13.3308 32.38C13.0708 32.98 12.6841 33.5133 12.1708 33.98C11.6574 34.44 11.0174 34.8333 10.2508 35.16L9.84078 34.54C10.5141 34.2667 11.0774 33.9367 11.5308 33.55C11.9841 33.1633 12.3241 32.73 12.5508 32.25C12.7841 31.77 12.9008 31.2467 12.9008 30.68V30.4ZM10.2008 30.4H13.1908V31.08H10.2008V30.4ZM22.66 32.01H24.36V32.7H22.66V32.01ZM25.83 29.73H26.62V36.52H25.83V29.73ZM24.06 29.91H24.85V36.26H24.06V29.91ZM20.72 37.9H26.89V38.58H20.72V37.9ZM20.72 35.69H21.55V38.27H20.72V35.69ZM20.87 30.37H21.53V31.7C21.53 32.1667 21.45 32.63 21.29 33.09C21.13 33.55 20.8967 33.97 20.59 34.35C20.2833 34.7233 19.9133 35.0133 19.48 35.22L19.02 34.59C19.4067 34.3967 19.7367 34.1433 20.01 33.83C20.29 33.5167 20.5033 33.1733 20.65 32.8C20.7967 32.4267 20.87 32.06 20.87 31.7V30.37ZM21.02 30.37H21.67V31.7C21.67 32.0533 21.7367 32.4033 21.87 32.75C22.01 33.09 22.2133 33.4 22.48 33.68C22.7467 33.96 23.0667 34.1833 23.44 34.35L22.98 34.99C22.56 34.7967 22.2033 34.53 21.91 34.19C21.6167 33.85 21.3933 33.4667 21.24 33.04C21.0933 32.6067 21.02 32.16 21.02 31.7V30.37ZM34.8192 29.73H35.6392V38.79H34.8192V29.73ZM32.9492 33.14H34.9492V33.82H32.9492V33.14ZM28.6192 35.93H29.2992C29.8726 35.93 30.3826 35.9233 30.8292 35.91C31.2759 35.8967 31.6992 35.87 32.0992 35.83C32.5059 35.79 32.9192 35.7333 33.3392 35.66L33.4292 36.34C32.9959 36.4133 32.5726 36.47 32.1592 36.51C31.7459 36.55 31.3092 36.58 30.8492 36.6C30.3959 36.6133 29.8792 36.62 29.2992 36.62H28.6192V35.93ZM28.6192 30.56H32.7992V31.24H29.4392V36.16H28.6192V30.56ZM29.2292 33.1H32.3992V33.77H29.2292V33.1Z" fill="#ABACB5"/>
</svg>
