<svg width="212" height="108" viewBox="0 0 212 108" fill="none" xmlns="http://www.w3.org/2000/svg">
<path fill-rule="evenodd" clip-rule="evenodd" d="M10.8613 27.5112C7.3444 35.6287 11.5306 44.1085 14.2126 47.553C11.7971 55.0732 11.7267 63.0871 14.5242 70.6506C21.9865 90.8262 47.0294 100.157 70.4592 91.4908C93.889 82.8249 106.833 59.4443 99.3709 39.2687C96.6359 31.8742 91.5394 25.9365 85.0263 21.8077C84.8529 17.4886 82.5393 8.21383 74.5253 4.30855C73.1891 4.27539 69.0609 6.40873 63.2372 15.2073L63.3259 15.2348C56.8581 14.9601 50.0821 15.9702 43.4359 18.4284C36.7356 20.9066 30.8928 24.5883 26.1395 29.0542L26.5245 28.4416C16.3771 25.5502 11.8542 26.6166 10.8613 27.5112Z" fill="white"/>
<path d="M54.7524 22.9514H47.3288C45.6888 22.9514 44.3594 24.2809 44.3594 25.9208V51.9034C44.3594 53.5434 45.6888 54.8728 47.3288 54.8728H54.7524C56.3924 54.8728 57.7218 53.5434 57.7218 51.9034V28.1479V25.9208C57.7218 24.2809 56.3924 22.9514 54.7524 22.9514Z" fill="#61E5FA"/>
<path d="M87.4165 22.9514H79.9929C78.3529 22.9514 77.0234 24.2809 77.0234 25.9208V51.9034C77.0234 53.5434 78.3529 54.8728 79.9929 54.8728H87.4165C89.0564 54.8728 90.3859 53.5434 90.3859 51.9034V28.1479V25.9208C90.3859 24.2809 89.0564 22.9514 87.4165 22.9514Z" fill="#61E5FA"/>
<path d="M79.9918 27.4055H56.2363V38.5409H79.9918V27.4055Z" fill="#61E5FA"/>
<path d="M79.9921 43.7375H54.752V54.8729H79.9921V43.7375Z" fill="#61E5FA"/>
<path d="M71.082 78.6283V72.6894C71.082 71.0494 72.4115 69.72 74.0515 69.72H82.9598C84.5997 69.72 85.9292 71.0494 85.9292 72.6894V78.6283C85.9292 80.2682 84.5997 81.5977 82.9598 81.5977H74.0515C72.4115 81.5977 71.082 80.2682 71.082 78.6283Z" fill="#61E5FA"/>
<path d="M50.2969 78.6283V72.6894C50.2969 71.0494 51.6263 69.72 53.2663 69.72H62.1746C63.8146 69.72 65.144 71.0494 65.144 72.6894V78.6283C65.144 80.2682 63.8146 81.5977 62.1746 81.5977H53.2663C51.6263 81.5977 50.2969 80.2682 50.2969 78.6283Z" fill="#61E5FA"/>
<path d="M41.3887 68.9777V63.7812C41.3887 62.1412 42.7181 60.8118 44.3581 60.8118H91.869C93.509 60.8118 94.8385 62.1412 94.8385 63.7812V68.9777C94.8385 70.6177 93.509 71.9471 91.869 71.9471H44.3581C42.7181 71.9471 41.3887 70.6177 41.3887 68.9777Z" fill="#61E5FA"/>
<path d="M100.777 51.9033V49.6762C100.777 48.0362 102.107 46.7068 103.747 46.7068H151.258C152.898 46.7068 154.227 48.0362 154.227 49.6762V51.9033C154.227 53.5433 152.898 54.8727 151.258 54.8727H103.747C102.107 54.8727 100.777 53.5433 100.777 51.9033Z" fill="white"/>
<path d="M102.262 27.4056V25.9208C102.262 24.2809 103.591 22.9514 105.231 22.9514H149.773C151.413 22.9514 152.742 24.2809 152.742 25.9208V27.4056C152.742 29.0455 151.413 30.375 149.773 30.375H105.231C103.591 30.375 102.262 29.0455 102.262 27.4056Z" fill="white"/>
<path d="M102.262 40.7681V39.2834C102.262 37.6434 103.591 36.314 105.231 36.314H149.773C151.413 36.314 152.742 37.6434 152.742 39.2834V40.7681C152.742 42.4081 151.413 43.7375 149.773 43.7375H105.231C103.591 43.7375 102.262 42.4081 102.262 40.7681Z" fill="white"/>
<path d="M110.428 37.0562L109.686 30.375H123.048L123.79 36.3529L110.428 37.0562Z" fill="white"/>
<path d="M131.213 28.8903L130.471 37.7986H143.833L144.576 29.828L131.213 28.8903Z" fill="white"/>
<path d="M102.262 62.2965V61.5541C102.262 59.9142 103.591 58.5847 105.231 58.5847H149.773C151.413 58.5847 152.742 59.9142 152.742 61.5541V71.9472C152.742 73.5871 151.413 74.9166 149.773 74.9166H117.48C116.865 74.9166 116.367 75.4151 116.367 76.0301C116.367 76.6451 116.865 77.1437 117.48 77.1437H150.515C152.155 77.1437 153.484 78.4731 153.484 80.1131V81.5978C153.484 83.2378 152.155 84.5672 150.515 84.5672H105.231C103.591 84.5672 102.262 83.2378 102.262 81.5978V70.5237C102.262 68.86 103.628 67.5209 105.292 67.5549L137.138 68.2048C137.961 68.2216 138.637 67.5589 138.637 66.7355C138.637 65.9239 137.979 65.2659 137.168 65.2659H105.231C103.591 65.2659 102.262 63.9365 102.262 62.2965Z" fill="white"/>
<path d="M160.166 32.602V27.4055C160.166 25.7655 161.495 24.436 163.135 24.436H188.376C190.016 24.436 191.345 25.7655 191.345 27.4055V53.388C191.345 55.028 190.016 56.3574 188.376 56.3574H177.24C175.6 56.3574 174.271 57.6869 174.271 59.3269V63.781C174.271 65.421 175.6 66.7504 177.24 66.7504H189.86C191.5 66.7504 192.83 68.0799 192.83 69.7199V74.9164C192.83 76.5564 191.5 77.8858 189.86 77.8858H163.135C161.495 77.8858 160.166 76.5564 160.166 74.9164V48.1915C160.166 46.5515 161.495 45.2221 163.135 45.2221H175.013C176.653 45.2221 177.983 43.8926 177.983 42.2526V38.5408C177.983 36.9009 176.653 35.5714 175.013 35.5714H163.135C161.495 35.5714 160.166 34.2419 160.166 32.602Z" fill="white"/>
<path d="M197.283 76.4012V25.9208C197.283 24.2809 198.613 22.9514 200.253 22.9514H208.419C210.059 22.9514 211.388 24.2809 211.388 25.9209V76.4012C211.388 78.0412 210.059 79.3706 208.419 79.3706H200.253C198.613 79.3706 197.283 78.0412 197.283 76.4012Z" fill="white"/>
<circle cx="205.389" cy="31.9514" r="4" fill="#61E5FA"/>
<circle cx="167.389" cy="71.9514" r="4" fill="#61E5FA"/>
</svg>
