<svg width="100" height="95" viewBox="0 0 100 95" fill="none" xmlns="http://www.w3.org/2000/svg">
<path fill-rule="evenodd" clip-rule="evenodd" d="M9.49323 24.5635C6.46168 31.6983 10.1825 39.1029 12.5539 42.1044C10.4836 48.7089 10.4714 55.7315 12.9694 62.3417C19.6328 79.9742 41.634 87.9952 62.1104 80.2571C82.5869 72.519 93.7847 51.9521 87.1213 34.3196C84.6791 27.8571 80.1765 22.6857 74.4439 19.1081C74.2652 15.3247 72.1807 7.21194 65.1343 3.83948C63.9634 3.81868 60.3593 5.71349 55.3107 13.4591L55.3896 13.483C49.7205 13.2821 43.789 14.2091 37.9803 16.4042C32.1239 18.6173 27.0266 21.8798 22.889 25.8229L23.2237 25.2819C14.3143 22.8111 10.3578 23.7734 9.49323 24.5635Z" fill="white"/>
</svg>
