<svg width="335" height="48" viewBox="0 0 335 48" fill="none" xmlns="http://www.w3.org/2000/svg">
<rect width="335" height="48" rx="16" fill="#FAE300"/>
<path d="M121 22.9631C121 26.8088 116.523 29.9263 111 29.9263L107.7 33V29.5382C103.799 28.5889 101 26.0036 101 22.9631C101 19.1175 105.477 16 111 16C116.523 16 121 19.1175 121 22.9631Z" fill="#371D1E"/>
<path d="M142.812 18.6562C142.805 22.9219 141.641 26.5859 136.438 29.1719L135.484 27.8594C137.93 26.6562 139.391 25.2422 140.211 23.5703L135.812 23.9844L135.594 22.4844L140.734 22.1641C140.914 21.5 141.031 20.8047 141.086 20.0625H136.328V18.6562H142.812ZM144.797 31.3594V17.2656H146.531V22.7969H148.625V24.2188H146.531V31.3594H144.797ZM156.641 18.6562C156.633 22.9219 155.469 26.5859 150.266 29.1719L149.312 27.8594C151.758 26.6562 153.219 25.2422 154.039 23.5703L149.641 23.9844L149.422 22.4844L154.562 22.1641C154.742 21.5 154.859 20.8047 154.914 20.0625H150.156V18.6562H156.641ZM158.625 31.3594V17.2656H160.359V22.7969H162.453V24.2188H160.359V31.3594H158.625ZM169.547 18.0625C172.578 18.0703 174.82 19.5781 174.812 21.875C174.82 23.9922 173 25.4062 170.406 25.6641V28.25H176.031V29.6719H163.125V28.25H168.688V25.6641C166.125 25.4062 164.305 23.9922 164.312 21.875C164.305 19.5781 166.539 18.0703 169.547 18.0625ZM166.016 21.875C166.008 23.3984 167.484 24.3125 169.547 24.3125C171.641 24.3125 173.109 23.3984 173.109 21.875C173.109 20.3984 171.641 19.4609 169.547 19.4688C167.484 19.4609 166.008 20.3984 166.016 21.875ZM189.859 28.3125V29.75H176.953V28.3125H182.516V26.0156H178.484V21.3906H186.609V19.6406H178.453V18.2344H188.328V22.7656H180.219V24.5938H188.656V26.0156H184.234V28.3125H189.859ZM207.484 28.3125V29.75H194.578V28.3125H200.141V26.0156H196.109V21.3906H204.234V19.6406H196.078V18.2344H205.953V22.7656H197.844V24.5938H206.281V26.0156H201.859V28.3125H207.484ZM219.641 18.6406V20.2344C219.641 22.125 219.641 24.0703 219.125 27.0469L217.359 26.8906C217.906 24.1172 217.906 22.0703 217.906 20.2344V20.0469H209.766V18.6406H219.641ZM208.406 29.4531V28.0312H221.281V29.4531H208.406ZM234 17.2812V27.4844H232.25V17.2812H234ZM222.484 21.7344C222.484 19.6797 224.148 18.2109 226.297 18.2031C228.445 18.2109 230.102 19.6797 230.094 21.7344C230.102 23.8203 228.445 25.2812 226.297 25.2812C224.148 25.2812 222.484 23.8203 222.484 21.7344ZM224.188 21.7344C224.18 22.9844 225.086 23.7656 226.297 23.7656C227.477 23.7656 228.391 22.9844 228.391 21.7344C228.391 20.5156 227.477 19.7188 226.297 19.7188C225.086 19.7188 224.18 20.5156 224.188 21.7344ZM224.656 31.1094V26.4531H226.406V29.7031H234.391V31.1094H224.656Z" fill="#371D1E"/>
</svg>
