<svg width="53" height="24" viewBox="0 0 53 24" fill="none" xmlns="http://www.w3.org/2000/svg">
<rect width="53" height="24" rx="2" fill="#08CEED"/>
<path d="M12.4379 7.088H13.4339V12.872H12.4379V7.088ZM13.1579 9.62H15.0419V10.448H13.1579V9.62ZM5.51388 11.684H6.35388C8.58588 11.684 9.84588 11.612 11.2979 11.324L11.4059 12.128C9.91788 12.44 8.63388 12.512 6.35388 12.512H5.51388V11.684ZM5.51388 7.796H10.2899V8.612H6.49788V12.248H5.51388V7.796ZM6.59388 13.46H7.57788V14.792H12.4499V13.46H13.4339V17.756H6.59388V13.46ZM7.57788 15.584V16.94H12.4499V15.584H7.57788ZM21.2329 9.08H24.3649V9.884H21.2329V9.08ZM21.2329 11.42H24.3889V12.224H21.2329V11.42ZM23.9809 7.1H24.9769V15.128H23.9809V7.1ZM18.0049 16.88H25.2409V17.696H18.0049V16.88ZM18.0049 14.348H19.0009V17.3H18.0049V14.348ZM16.5889 7.808H17.5729V9.728H20.5129V7.808H21.4849V13.28H16.5889V7.808ZM17.5729 10.508V12.464H20.5129V10.508H17.5729ZM29.896 11.588H30.892V13.232H29.896V11.588ZM30.364 7.58C31.936 7.58 33.04 8.444 33.04 9.728C33.04 11.012 31.936 11.864 30.364 11.864C28.804 11.864 27.7 11.012 27.7 9.728C27.7 8.444 28.804 7.58 30.364 7.58ZM30.364 8.348C29.344 8.348 28.636 8.912 28.636 9.728C28.636 10.556 29.344 11.108 30.364 11.108C31.396 11.108 32.104 10.556 32.104 9.728C32.104 8.912 31.396 8.348 30.364 8.348ZM34.504 7.1H35.5V15.392H34.504V7.1ZM35.08 10.76H37.084V11.588H35.08V10.76ZM28.636 16.868H35.884V17.696H28.636V16.868ZM28.636 14.684H29.632V17.228H28.636V14.684ZM27.208 13.784L27.076 12.968C28.984 12.968 31.624 12.944 33.832 12.608L33.904 13.34C31.636 13.76 29.068 13.784 27.208 13.784ZM40.8751 13.448H41.8591V16.112H40.8751V13.448ZM44.3431 13.424H45.3151V16.1H44.3431V13.424ZM38.1391 15.776H47.9671V16.604H38.1391V15.776ZM39.3271 7.892H46.7551V11.168H40.3471V13.352H39.3631V10.376H45.7711V8.696H39.3271V7.892ZM39.3631 12.908H47.0071V13.724H39.3631V12.908Z" fill="white"/>
</svg>
