<svg width="53" height="24" viewBox="0 0 53 24" fill="none" xmlns="http://www.w3.org/2000/svg">
<rect width="53" height="24" rx="2" fill="#C6C7CD"/>
<path d="M12.4379 7.088H13.4339V12.872H12.4379V7.088ZM13.1579 9.62H15.0419V10.448H13.1579V9.62ZM5.51388 11.684H6.35388C8.58588 11.684 9.84588 11.612 11.2979 11.324L11.4059 12.128C9.91788 12.44 8.63388 12.512 6.35388 12.512H5.51388V11.684ZM5.51388 7.796H10.2899V8.612H6.49788V12.248H5.51388V7.796ZM6.59388 13.46H7.57788V14.792H12.4499V13.46H13.4339V17.756H6.59388V13.46ZM7.57788 15.584V16.94H12.4499V15.584H7.57788ZM21.2329 9.08H24.3649V9.884H21.2329V9.08ZM21.2329 11.42H24.3889V12.224H21.2329V11.42ZM23.9809 7.1H24.9769V15.128H23.9809V7.1ZM18.0049 16.88H25.2409V17.696H18.0049V16.88ZM18.0049 14.348H19.0009V17.3H18.0049V14.348ZM16.5889 7.808H17.5729V9.728H20.5129V7.808H21.4849V13.28H16.5889V7.808ZM17.5729 10.508V12.464H20.5129V10.508H17.5729ZM35.344 7.088H36.304V17.936H35.344V7.088ZM33.508 11.432H35.596V12.26H33.508V11.432ZM32.884 7.328H33.82V17.384H32.884V7.328ZM27.484 14.432H28.192C29.776 14.432 30.856 14.372 32.116 14.108L32.212 14.936C30.916 15.212 29.824 15.26 28.192 15.26H27.484V14.432ZM27.484 8.408H31.516V9.224H28.468V14.804H27.484V8.408ZM46.0351 7.088H47.0311V17.936H46.0351V7.088ZM42.8551 8.252H43.8391C43.8391 11.396 42.4231 14.144 38.7991 15.92L38.2711 15.116C41.4031 13.604 42.8551 11.3 42.8551 8.42V8.252ZM38.7631 8.252H43.2871V9.068H38.7631V8.252Z" fill="white"/>
</svg>
