<svg width="140" height="38" viewBox="0 0 140 38" fill="none" xmlns="http://www.w3.org/2000/svg">
<rect width="140" height="32" rx="8" fill="#012228"/>
<path d="M20.7971 15.408H22.7891V16.236H20.7971V15.408ZM20.0651 11.076H21.0611V21.924H20.0651V11.076ZM13.1531 12.144H14.1371V18.864H13.1531V12.144ZM13.1531 18.348H14.0171C14.8091 18.348 15.6211 18.312 16.4531 18.24C17.2931 18.168 18.1611 18.04 19.0571 17.856L19.1771 18.696C18.2491 18.88 17.3611 19.008 16.5131 19.08C15.6731 19.144 14.8411 19.176 14.0171 19.176H13.1531V18.348ZM24.2042 12.06H29.1962V17.076H24.2042V12.06ZM28.2242 12.864H25.1762V16.272H28.2242V12.864ZM31.1882 11.076H32.1842V19.032H31.1882V11.076ZM31.8722 14.376H33.7802V15.204H31.8722V14.376ZM25.4282 20.88H32.6642V21.696H25.4282V20.88ZM25.4282 18.276H26.4122V21.228H25.4282V18.276ZM39.6952 11.268C40.8952 11.268 41.8312 11.432 42.5032 11.76C43.1752 12.08 43.5112 12.54 43.5112 13.14C43.5112 13.748 43.1752 14.216 42.5032 14.544C41.8312 14.864 40.8952 15.024 39.6952 15.024C38.5032 15.024 37.5672 14.864 36.8872 14.544C36.2152 14.216 35.8792 13.748 35.8792 13.14C35.8792 12.54 36.2152 12.08 36.8872 11.76C37.5672 11.432 38.5032 11.268 39.6952 11.268ZM39.6952 12.012C39.1112 12.012 38.6112 12.056 38.1952 12.144C37.7792 12.232 37.4592 12.36 37.2352 12.528C37.0192 12.696 36.9112 12.9 36.9112 13.14C36.9112 13.38 37.0192 13.588 37.2352 13.764C37.4592 13.932 37.7792 14.06 38.1952 14.148C38.6112 14.228 39.1112 14.268 39.6952 14.268C40.2872 14.268 40.7912 14.228 41.2072 14.148C41.6232 14.06 41.9392 13.932 42.1552 13.764C42.3792 13.588 42.4912 13.38 42.4912 13.14C42.4912 12.9 42.3792 12.696 42.1552 12.528C41.9392 12.36 41.6232 12.232 41.2072 12.144C40.7912 12.056 40.2872 12.012 39.6952 12.012ZM34.7992 15.756H44.6032V16.56H34.7992V15.756ZM35.9872 17.484H43.3432V19.932H36.9832V21.24H36.0112V19.2H42.3712V18.252H35.9872V17.484ZM36.0112 21.036H43.6672V21.816H36.0112V21.036ZM52.0619 11.592C52.6059 11.592 53.0859 11.688 53.5019 11.88C53.9179 12.064 54.2419 12.324 54.4739 12.66C54.7139 12.988 54.8339 13.376 54.8339 13.824C54.8339 14.256 54.7139 14.644 54.4739 14.988C54.2419 15.324 53.9179 15.588 53.5019 15.78C53.0859 15.964 52.6059 16.056 52.0619 16.056C51.5339 16.056 51.0619 15.964 50.6459 15.78C50.2299 15.588 49.9019 15.324 49.6619 14.988C49.4219 14.644 49.3019 14.256 49.3019 13.824C49.3019 13.376 49.4219 12.988 49.6619 12.66C49.9019 12.324 50.2299 12.064 50.6459 11.88C51.0619 11.688 51.5339 11.592 52.0619 11.592ZM52.0619 12.408C51.7179 12.408 51.4099 12.468 51.1379 12.588C50.8659 12.708 50.6499 12.876 50.4899 13.092C50.3379 13.3 50.2619 13.544 50.2619 13.824C50.2619 14.096 50.3379 14.34 50.4899 14.556C50.6499 14.764 50.8659 14.928 51.1379 15.048C51.4099 15.168 51.7179 15.228 52.0619 15.228C52.4219 15.228 52.7379 15.168 53.0099 15.048C53.2819 14.928 53.4939 14.764 53.6459 14.556C53.8059 14.34 53.8859 14.096 53.8859 13.824C53.8859 13.544 53.8059 13.3 53.6459 13.092C53.4939 12.876 53.2819 12.708 53.0099 12.588C52.7379 12.468 52.4219 12.408 52.0619 12.408ZM51.6299 17.268H52.6259V21.6H51.6299V17.268ZM56.4299 11.088H57.4139V21.936H56.4299V11.088ZM48.6299 17.808L48.4979 16.968C49.1699 16.968 49.9059 16.96 50.7059 16.944C51.5139 16.928 52.3419 16.892 53.1899 16.836C54.0459 16.78 54.8659 16.692 55.6499 16.572L55.7219 17.316C54.9139 17.468 54.0899 17.58 53.2499 17.652C52.4099 17.716 51.5939 17.756 50.8019 17.772C50.0179 17.788 49.2939 17.8 48.6299 17.808ZM66.9889 11.088H67.9849V19.224H66.9889V11.088ZM67.6729 14.652H69.5809V15.48H67.6729V14.652ZM59.5849 12.408H65.9929V13.212H59.5849V12.408ZM62.7889 13.8C63.3009 13.8 63.7529 13.888 64.1449 14.064C64.5369 14.232 64.8409 14.468 65.0569 14.772C65.2729 15.068 65.3809 15.42 65.3809 15.828C65.3809 16.236 65.2729 16.592 65.0569 16.896C64.8409 17.192 64.5369 17.424 64.1449 17.592C63.7529 17.76 63.3009 17.844 62.7889 17.844C62.2769 17.844 61.8249 17.76 61.4329 17.592C61.0409 17.424 60.7329 17.192 60.5089 16.896C60.2929 16.592 60.1849 16.236 60.1849 15.828C60.1849 15.42 60.2929 15.068 60.5089 14.772C60.7329 14.468 61.0409 14.232 61.4329 14.064C61.8249 13.888 62.2769 13.8 62.7889 13.8ZM62.7889 14.58C62.3009 14.58 61.9049 14.696 61.6009 14.928C61.2969 15.152 61.1449 15.452 61.1449 15.828C61.1449 16.204 61.2969 16.504 61.6009 16.728C61.9049 16.952 62.3009 17.064 62.7889 17.064C63.2849 17.064 63.6809 16.952 63.9769 16.728C64.2809 16.504 64.4329 16.204 64.4329 15.828C64.4329 15.452 64.2809 15.152 63.9769 14.928C63.6809 14.696 63.2849 14.58 62.7889 14.58ZM62.2969 11.088H63.2929V12.816H62.2969V11.088ZM61.2289 20.88H68.4649V21.696H61.2289V20.88ZM61.2289 18.576H62.2129V21.216H61.2289V18.576ZM75.7436 17.556H76.7516V21.936H75.7436V17.556ZM79.6316 17.556H80.6276V21.936H79.6316V17.556ZM73.2716 17.412H83.1116V18.228H73.2716V17.412ZM74.5196 11.508H75.5036V12.96H80.8676V11.508H81.8636V16.14H74.5196V11.508ZM75.5036 13.764V15.324H80.8676V13.764H75.5036ZM85.0067 18.492H85.8707C86.5507 18.492 87.1707 18.484 87.7307 18.468C88.2987 18.452 88.8427 18.42 89.3627 18.372C89.8907 18.324 90.4307 18.252 90.9827 18.156L91.0907 18.972C90.5227 19.068 89.9707 19.144 89.4347 19.2C88.8987 19.248 88.3427 19.28 87.7667 19.296C87.1987 19.312 86.5667 19.32 85.8707 19.32H85.0067V18.492ZM85.0067 12.06H90.2627V12.888H85.9907V18.78H85.0067V12.06ZM85.7507 15.108H89.8667V15.912H85.7507V15.108ZM92.2307 11.076H93.2267V21.936H92.2307V11.076ZM96.2737 11.412H104.23V12.18H96.2737V11.412ZM96.3097 14.244H104.194V15.012H96.3097V14.244ZM97.9057 11.7H98.9017V14.76H97.9057V11.7ZM101.602 11.7H102.598V14.76H101.602V11.7ZM95.3617 15.912H105.166V16.716H95.3617V15.912ZM96.5497 17.664H103.906V20.052H97.5457V21.36H96.5737V19.332H102.934V18.408H96.5497V17.664ZM96.5737 21.048H104.23V21.816H96.5737V21.048ZM106.761 18.504H107.469C108.133 18.504 108.781 18.488 109.413 18.456C110.045 18.416 110.725 18.336 111.453 18.216L111.549 19.032C110.797 19.168 110.097 19.256 109.449 19.296C108.809 19.328 108.149 19.344 107.469 19.344H106.761V18.504ZM106.737 12.252H110.793V16.068H107.721V18.816H106.761V15.252H109.833V13.08H106.737V12.252ZM114.657 11.076H115.605V21.936H114.657V11.076ZM112.821 15.36H114.909V16.176H112.821V15.36ZM112.197 11.316H113.121V21.372H112.197V11.316ZM125.384 11.076H126.38V21.948H125.384V11.076ZM122.06 14.652H125.708V15.468H122.06V14.652ZM118.028 12.288H119.024V19.02H118.028V12.288ZM118.028 18.48H118.868C119.428 18.48 119.972 18.468 120.5 18.444C121.036 18.42 121.568 18.376 122.096 18.312C122.624 18.248 123.164 18.16 123.716 18.048L123.836 18.876C123.26 18.988 122.7 19.076 122.156 19.14C121.62 19.204 121.08 19.252 120.536 19.284C120 19.308 119.444 19.32 118.868 19.32H118.028V18.48Z" fill="white"/>
<path d="M67.5 38L61.8708 28.25L73.1292 28.25L67.5 38Z" fill="#012228"/>
</svg>
